<?xml version="1.0" encoding="UTF-8" standalone="no"?>
<svg
   width="404.10236mm"
   height="349.59946mm"
   version="1.1"
   viewBox="0 0 1145.487 990.9906"
   xml:space="preserve"
   style="clip-rule:evenodd;fill-rule:evenodd;stroke-linecap:round;stroke-linejoin:round;stroke-miterlimit:1.5"
   id="svg14"
   sodipodi:docname="OCHVPS_v1.0_enclosure.svg"
   inkscape:version="1.2.2 (732a01da63, 2022-12-09)"
   xmlns:inkscape="http://www.inkscape.org/namespaces/inkscape"
   xmlns:sodipodi="http://sodipodi.sourceforge.net/DTD/sodipodi-0.dtd"
   xmlns="http://www.w3.org/2000/svg"
   xmlns:svg="http://www.w3.org/2000/svg"><defs
   id="defs18" /><sodipodi:namedview
   id="namedview16"
   pagecolor="#ffffff"
   bordercolor="#666666"
   borderopacity="1.0"
   inkscape:pageshadow="2"
   inkscape:pageopacity="0.0"
   inkscape:pagecheckerboard="0"
   inkscape:document-units="mm"
   showgrid="false"
   units="mm"
   showguides="false"
   inkscape:zoom="1"
   inkscape:cx="676.5"
   inkscape:cy="435"
   inkscape:window-width="2560"
   inkscape:window-height="1369"
   inkscape:window-x="2552"
   inkscape:window-y="-8"
   inkscape:window-maximized="1"
   inkscape:current-layer="svg14"
   inkscape:showpageshadow="2"
   inkscape:deskcolor="#d1d1d1" />
        <path
   d="m 1136.8452,131.94882 v 12.66 h 8.5 v 21.15 h -8.5 v 21.16 h 8.5 v 21.16 h -8.5 v 21.15001 h 8.5 v 21.16 h -8.5 v 21.15 h 8.5 v 21.16 h -8.5 v 21.16 h 8.5 v 21.15 h -8.5 v 21.16 h 8.5 v 21.15 h -8.5 v 21.16 h 8.5 v 21.16 h -8.5 v 21.15 h 8.5 v 21.16 h -8.5 v 21.16 h 8.5 v 21.15 h -8.5 v 21.16 h 8.5 v 21.15 h -8.5 v 21.16 h 8.5 v 21.16 h -8.5 v 21.15 h 8.5 v 21.16 h -8.5 v 21.15 h 8.5 v 21.16 h -8.5 v 21.16 h 8.5 v 21.15 h -8.5 v 21.16 h 8.5 v 21.15 h -8.5 v 21.16 h 8.5 v 21.16 h -8.5 v 21.15 h 8.5 v 21.16 h -8.5 v 21.16 h 8.5 v 21.15 h -8.5 v 21.16 h 8.5 v 21.14995 h -8.5 v 21.16 h 8.5 v 21.15997 h -8.5 v 12.65 h -12.55 v 8.50002 h -21.06 v -8.50002 h -21.06 v 8.50002 h -21.06 v -8.50002 h -21.05 v 8.50002 h -21.06 v -8.50002 h -21.05996 v 8.50002 h -21.06 v -8.50002 h -21.05 v 8.50002 h -21.06 v -8.50002 h -21.06 v 8.50002 H 892.6552 v -8.50002 h -21.05 v 8.50002 h -21.06 v -8.50002 h -21.06 v 8.50002 h -21.05 v -8.50002 h -21.06 v 8.50002 h -21.06 v -8.50002 h -21.06 v 8.50002 h -21.05 v -8.50002 h -12.56 v -12.65 h -8.5 v -21.15997 h 8.5 v -21.16 h -8.5 v -21.14995 h 8.5 v -21.16 h -8.5 v -21.15 h 8.5 v -21.16 h -8.5 v -21.16 h 8.5 v -21.15 h -8.5 v -21.16 h 8.5 v -21.16 h -8.5 v -21.15 h 8.5 v -21.16 h -8.5 v -21.15 h 8.5 v -21.16 h -8.5 v -21.16 h 8.5 v -21.15 h -8.5 v -21.16 h 8.5 v -21.15 h -8.5 v -21.16 h 8.5 v -21.16 h -8.5 v -21.15 h 8.5 v -21.16 h -8.5 v -21.15 h 8.5 v -21.16 h -8.5 v -21.16 h 8.5 v -21.15 h -8.5 v -21.16 h 8.5 v -21.16 h -8.5 v -21.15 h 8.5 v -21.16 h -8.5 v -21.15 h 8.5 v -21.16 h -8.5 v -21.16 h 8.5 v -21.15 h -8.5 v -21.16 h 8.5 v -21.15001 h -8.5 v -21.16 h 8.5 v -21.16 h -8.5 v -21.15 h 8.5 v -12.66 h 12.56 v -8.5 h 21.05 v 8.5 h 21.06 v -8.5 h 21.06 v 8.5 h 21.06 v -8.5 h 21.05 v 8.5 h 21.06 v -8.5 h 21.06 v 8.5 h 21.05 v -8.5 h 21.06004 v 8.5 h 21.06 v -8.5 h 21.06 v 8.5 h 21.05 v -8.5 h 21.06 v 8.5 h 21.05996 v -8.5 h 21.06 v 8.5 h 21.05 v -8.5 h 21.06 v 8.5 h 21.06 v -8.5 h 21.06 v 8.5 z"
   style="fill:none;stroke:#0000ff;stroke-width:0.283465;stroke-miterlimit:1.5;stroke-dasharray:none;stroke-opacity:1"
   id="path2" />
        <path
   d="m 688.96244,982.34877 v -12.66 h -8.5 v -21.15 h 8.5 v -21.16 h -8.5 v -21.16 h 8.5 v -21.15 h -8.5 v -21.16 h 8.5 v -21.15 h -8.5 v -21.16 h 8.5 v -21.16 h -8.5 v -21.15 h 8.5 v -21.16 h -8.5 v -21.15 h 8.5 v -21.16 h -8.5 v -21.16 h 8.5 v -21.15 h -8.5 v -21.16 h 8.5 v -21.16 h -8.5 v -21.15 h 8.5 v -21.16 h -8.5 v -21.15 h 8.5 v -21.16 h -8.5 v -21.16 h 8.5 v -21.15 h -8.5 v -21.16 h 8.5 v -21.15 h -8.5 v -21.16 h 8.5 v -21.16 h -8.5 v -21.15 h 8.5 v -21.16 h -8.5 v -21.15 h 8.5 v -21.16 h -8.5 v -21.16 h 8.5 v -21.15 h -8.5 v -21.16 h 8.5 v -21.16 h -8.5 v -21.15 h 8.5 v -21.16 h -8.5 v -21.14998 h 8.5 v -21.15997 h -8.5 v -21.16 h 8.5 v -21.15 h -21.82 v 8.5 h -21.83 v -8.5 h -21.83 v 8.5 h -21.83 v -8.5 h -21.82 v 21.15 h 8.5 v 21.16 h -8.5 v 21.15997 h 8.5 v 21.14998 h -8.5 v 21.16 h 8.5 v 21.15 h -8.5 v 21.16 h 8.5 v 21.16 h -8.5 v 21.15 h 8.5 v 21.16 h -8.5 v 21.16 h 8.5 v 21.15 h -8.5 v 21.16 h 8.5 v 21.15 h -8.5 v 21.16 h 8.5 v 21.16 h -8.5 v 21.15 h 8.5 v 21.16 h -8.5 v 21.15 h 8.5 v 21.16 h -8.5 v 21.16 h 8.5 v 21.15 h -8.5 v 21.16 h 8.5 v 21.15 h -8.5 v 21.16 h 8.5 v 21.16 h -8.5 v 21.15 h 8.5 v 21.16 h -8.5 v 21.16 h 8.5 v 21.15 h -8.5 v 21.16 h 8.5 v 21.15 h -8.5 v 21.16 h 8.5 v 21.16 h -8.5 v 21.15 h 8.5 v 21.16 h -8.5 v 21.15 h 8.5 v 21.16 h -8.5 v 21.16 h 8.5 v 21.15 h -8.5 v 12.66 h 21.82 v 8.5 h 21.83 v -8.5 h 21.83 v 8.5 h 21.83 v -8.5 z"
   style="fill:none;stroke:#0000ff;stroke-width:0.283465;stroke-miterlimit:1.5;stroke-dasharray:none;stroke-opacity:1"
   id="path4" />
        <path
   d="m 711.6452,109.27173 h 12.56 v -8.5 h 21.05 v 8.5 h 21.06 v -8.5 h 21.06 v 8.5 h 21.06 v -8.5 h 21.05 v 8.5 h 21.06 v -8.5 h 21.06 v 8.5 h 21.06004 v -8.5 h 21.05 v 8.5 h 21.06 v -8.5 h 21.06 v 8.5 h 21.06 v -8.5 h 21.05 v 8.5 h 21.05996 v -8.5 h 21.06 v 8.5 h 21.05 v -8.5 h 21.06 v 8.5 h 21.06 v -8.5 h 21.06 v 8.5 h 21.05 V 87.441731 h -8.5 V 65.621733 h 8.5 V 43.791732 h -8.5 v -21.83 h 8.5 V 0.1417325 h -21.05 v 8.5 h -21.06 v -8.5 h -21.06 v 8.5 h -21.06 v -8.5 h -21.05 v 8.5 h -21.06 v -8.5 h -21.05996 v 8.5 h -21.05 v -8.5 h -21.06 v 8.5 h -21.06 v -8.5 h -21.06 v 8.5 h -21.05 v -8.5 H 871.6052 v 8.5 h -21.06 v -8.5 h -21.06 v 8.5 h -21.05 v -8.5 h -21.06 v 8.5 h -21.06 v -8.5 h -21.06 v 8.5 h -21.05 v -8.5 h -12.56 V 21.961732 h -8.5 v 21.83 h 8.5 v 21.830001 h -8.5 v 21.819998 h 8.5 z"
   style="fill:none;stroke:#0000ff;stroke-width:0.283465;stroke-miterlimit:1.5;stroke-dasharray:none;stroke-opacity:1"
   id="path6" />
        <path
   d="m 557.14883,131.94882 v 12.66 h 8.5 v 21.15 h -8.5 v 21.16 h 8.5 v 21.16004 h -8.5 v 21.15 h 8.5 v 21.16 h -8.5 v 21.15 h 8.5 v 21.16 h -8.5 v 21.16 h 8.5 v 21.15 h -8.5 v 21.16 h 8.5 v 21.15 h -8.5 v 21.16 h 8.5 v 21.16 h -8.5 v 21.15 h 8.5 v 21.16 h -8.5 v 21.16 h 8.5 v 21.15 h -8.5 v 21.16 h 8.5 v 21.15 h -8.5 v 21.16 h 8.5 v 21.16 h -8.5 v 21.15 h 8.5 v 21.16 h -8.5 v 21.15 h 8.5 v 21.16 h -8.5 v 21.16 h 8.5 v 21.15 h -8.5 v 21.16 h 8.5 v 21.15 h -8.5 v 21.16 h 8.5 v 21.16 h -8.5 v 21.15 h 8.5 v 21.16 h -8.5 v 21.16 h 8.5 v 21.15 h -8.5 v 21.16 h 8.5 v 21.14998 h -8.5 v 21.15997 h 8.5 v 21.16004 h -8.5 v 12.65 h -12.56 v 8.50002 h -21.05 v -8.50002 h -21.06 v 8.50002 h -21.06 v -8.50002 h -21.06 v 8.50002 h -21.05 v -8.50002 h -21.06 v 8.50002 h -21.06001 v -8.50002 h -21.05 v 8.50002 h -21.06 v -8.50002 h -21.06 v 8.50002 h -21.06 v -8.50002 h -21.05 v 8.50002 h -21.06 v -8.50002 h -21.06 v 8.50002 h -21.06 v -8.50002 h -21.05 v 8.50002 h -21.06 v -8.50002 h -21.06 v 8.50002 h -21.06 v -8.50002 h -12.55 v -12.65 h -8.5 v -21.16004 h 8.5 v -21.15997 h -8.5 v -21.14998 h 8.5 v -21.16 h -8.5 v -21.15 h 8.5 v -21.16 h -8.5 v -21.16 h 8.5 v -21.15 h -8.5 v -21.16 h 8.5 v -21.16 h -8.5 v -21.15 h 8.5 v -21.16 h -8.5 v -21.15 h 8.5 v -21.16 h -8.5 v -21.16 h 8.5 v -21.15 h -8.5 v -21.16 h 8.5 v -21.15 h -8.5 v -21.16 h 8.5 v -21.16 h -8.5 v -21.15 h 8.5 v -21.16 h -8.5 v -21.15 h 8.5 v -21.16 h -8.5 v -21.16 h 8.5 v -21.15 h -8.5 v -21.16 h 8.5 v -21.16 h -8.5 v -21.15 h 8.5 v -21.16 h -8.5 v -21.15 h 8.5 v -21.16 h -8.5 v -21.16 h 8.5 v -21.15 h -8.5 v -21.16 h 8.5 v -21.15 h -8.5 v -21.16004 h 8.5 v -21.16 h -8.5 v -21.15 h 8.5 v -12.66 h 12.55 v -8.5 h 21.06 v 8.5 h 21.06 v -8.5 h 21.06 v 8.5 h 21.05 v -8.5 h 21.06 v 8.5 h 21.06 v -8.5 h 21.06 v 8.5 h 21.05 v -8.5 h 21.06 v 8.5 h 21.06 v -8.5 h 21.06 v 8.5 h 21.05 v -8.5 h 21.06001 v 8.5 h 21.06 v -8.5 h 21.05 v 8.5 h 21.06 v -8.5 h 21.06 v 8.5 h 21.06 v -8.5 h 21.05 v 8.5 z"
   style="fill:none;stroke:#0000ff;stroke-width:0.283465;stroke-miterlimit:1.5;stroke-dasharray:none;stroke-opacity:1"
   id="path8" />
        <path
   d="m 557.14883,109.27172 h -12.56 v -8.5 h -21.05001 v 8.5 h -21.06 v -8.5 h -21.06 v 8.5 h -21.06 v -8.5 h -21.05 v 8.5 h -21.06 v -8.5 h -21.06 v 8.5 h -21.06 v -8.5 h -21.05 v 8.5 h -21.06 v -8.5 h -21.06 v 8.5 h -21.05 v -8.5 h -21.06 v 8.5 h -21.06 v -8.5 h -21.06 v 8.5 h -21.05 v -8.5 h -21.05999 v 8.5 h -21.06001 v -8.5 h -21.06 v 8.5 h -21.05 V 87.441721 h 8.5 V 65.621723 h -8.5 V 43.791732 h 8.5 v -21.83 h -8.5 V 0.1417325 h 21.05 v 8.5 h 21.06 v -8.5 h 21.06001 v 8.5 h 21.05999 v -8.5 h 21.05 v 8.5 h 21.06 v -8.5 h 21.06 v 8.5 h 21.06 v -8.5 h 21.05 v 8.5 h 21.06 v -8.5 h 21.06 v 8.5 h 21.05 v -8.5 h 21.06 v 8.5 h 21.06 v -8.5 h 21.06 v 8.5 h 21.05 v -8.5 h 21.06 v 8.5 h 21.06 v -8.5 h 21.06 v 8.5 h 21.05001 v -8.5 h 12.56 V 21.961732 h 8.5 v 21.83 h -8.5 v 21.829991 h 8.5 v 21.819998 h -8.5 z"
   style="fill:none;stroke:#0000ff;stroke-width:0.283465;stroke-miterlimit:1.5;stroke-dasharray:none;stroke-opacity:1"
   id="path10" />
        <path
   d="m 109.27173,131.94882 v 12.66 h -8.5 v 21.15 h 8.5 v 21.16 h -8.5 v 21.16 h 8.5 v 21.15 h -8.5 v 21.16 h 8.5 v 21.15 h -8.5 v 21.16 h 8.5 v 21.16 h -8.5 v 21.15 h 8.5 v 21.16 h -8.5 v 21.15 h 8.5 v 21.16 h -8.5 v 21.16 h 8.5 v 21.15 h -8.5 v 21.16 h 8.5 v 21.16 h -8.5 v 21.15 h 8.5 v 21.16 h -8.5 v 21.15 h 8.5 v 21.16 h -8.5 v 21.16 h 8.5 v 21.15 h -8.5 v 21.16 h 8.5 v 21.15 h -8.5 v 21.16 h 8.5 v 21.16 h -8.5 v 21.15 h 8.5 v 21.16 h -8.5 v 21.15 h 8.5 v 21.16 h -8.5 v 21.16 h 8.5 v 21.15 h -8.5 v 21.16 h 8.5 v 21.16 h -8.5 v 21.15 h 8.5 v 21.16 h -8.5 v 21.15002 h 8.5 v 21.16 h -8.5 v 21.16001 h 8.5 v 21.15002 H 87.441733 v -8.50002 H 65.621732 v 8.50002 h -21.83 v -8.50002 h -21.83 v 8.50002 H 0.1417325 v -21.15002 h 8.5 v -21.16001 h -8.5 v -21.16 h 8.5 v -21.15002 h -8.5 v -21.16 h 8.5 v -21.15 h -8.5 v -21.16 h 8.5 v -21.16 h -8.5 v -21.15 h 8.5 v -21.16 h -8.5 v -21.16 h 8.5 v -21.15 h -8.5 v -21.16 h 8.5 v -21.15 h -8.5 v -21.16 h 8.5 v -21.16 h -8.5 v -21.15 h 8.5 v -21.16 h -8.5 v -21.15 h 8.5 v -21.16 h -8.5 v -21.16 h 8.5 v -21.15 h -8.5 v -21.16 h 8.5 v -21.15 h -8.5 v -21.16 h 8.5 v -21.16 h -8.5 v -21.15 h 8.5 v -21.16 h -8.5 v -21.16 h 8.5 v -21.15 h -8.5 v -21.16 h 8.5 v -21.15 h -8.5 v -21.16 h 8.5 v -21.16 h -8.5 v -21.15 h 8.5 v -21.16 h -8.5 v -21.15 h 8.5 v -21.16 h -8.5 v -21.16 h 8.5 v -21.15 h -8.5 v -12.66 H 21.961732 v -8.5 h 21.83 v 8.5 h 21.83 v -8.5 h 21.820001 v 8.5 z"
   style="fill:none;stroke:#0000ff;stroke-width:0.283465;stroke-miterlimit:1.5;stroke-dasharray:none;stroke-opacity:1"
   id="path12" />

<circle
   style="fill:none;stroke:#ff0000;stroke-width:0.282655;stroke-miterlimit:1.5;stroke-dasharray:none;stroke-opacity:1"
   id="path2358"
   cx="143.29134"
   cy="143.29132"
   r="5.102767" /><rect
   style="clip-rule:evenodd;fill-rule:evenodd;stroke:#000000;stroke-width:0.00137287;stroke-linecap:round;stroke-linejoin:round;stroke-miterlimit:1.5;stroke-dasharray:none;stroke-opacity:1"
   id="rect2034-6-0-4-6"
   width="850.39233"
   height="0.0014617811"
   x="-982.34576"
   y="557.15033"
   transform="rotate(-90)" /><circle
   style="clip-rule:evenodd;fill:none;fill-rule:evenodd;stroke:#ff0000;stroke-width:0.283465;stroke-linecap:round;stroke-linejoin:round;stroke-miterlimit:1.5;stroke-dasharray:none;stroke-opacity:1"
   id="path2358-9"
   cx="545.81146"
   cy="143.29173"
   r="5.102767" /><circle
   style="clip-rule:evenodd;fill:none;fill-rule:evenodd;stroke:#ff0000;stroke-width:0.282655;stroke-linecap:round;stroke-linejoin:round;stroke-miterlimit:1.5;stroke-dasharray:none;stroke-opacity:1"
   id="path2358-0"
   cx="143.29135"
   cy="971.00787"
   r="5.102767" /><circle
   style="clip-rule:evenodd;fill:none;fill-rule:evenodd;stroke:#ff0000;stroke-width:0.282655;stroke-linecap:round;stroke-linejoin:round;stroke-miterlimit:1.5;stroke-dasharray:none;stroke-opacity:1"
   id="path2358-0-2"
   cx="545.81104"
   cy="971.00787"
   r="5.102767" /><circle
   style="clip-rule:evenodd;fill:none;fill-rule:evenodd;stroke:#ff0000;stroke-width:0.282655;stroke-linecap:round;stroke-linejoin:round;stroke-miterlimit:1.5;stroke-dasharray:none;stroke-opacity:1"
   id="path2358-4"
   cx="722.98773"
   cy="143.29134"
   r="5.102767" /><circle
   style="clip-rule:evenodd;fill:none;fill-rule:evenodd;stroke:#ff0000;stroke-width:0.282655;stroke-linecap:round;stroke-linejoin:round;stroke-miterlimit:1.5;stroke-dasharray:none;stroke-opacity:1"
   id="path2358-03"
   cx="1125.5074"
   cy="143.29134"
   r="5.102767" /><circle
   style="clip-rule:evenodd;fill:none;fill-rule:evenodd;stroke:#ff0000;stroke-width:0.282655;stroke-linecap:round;stroke-linejoin:round;stroke-miterlimit:1.5;stroke-dasharray:none;stroke-opacity:1"
   id="path2358-8"
   cx="1125.5074"
   cy="971.00787"
   r="5.102767" /><circle
   style="clip-rule:evenodd;fill:none;fill-rule:evenodd;stroke:#ff0000;stroke-width:0.282655;stroke-linecap:round;stroke-linejoin:round;stroke-miterlimit:1.5;stroke-dasharray:none;stroke-opacity:1"
   id="path2358-2"
   cx="722.98773"
   cy="971.00787"
   r="5.102767" /><rect
   style="clip-rule:evenodd;fill-rule:evenodd;stroke:#000000;stroke-width:0.000563266;stroke-linecap:round;stroke-linejoin:round;stroke-miterlimit:1.5;stroke-dasharray:none;stroke-opacity:1"
   id="rect2034-6-0-4-6-0"
   width="92.12542"
   height="0.0022713849"
   x="-100.77138"
   y="557.1499"
   transform="rotate(-90)" /><rect
   style="fill:none;stroke:#ff0000;stroke-width:0.283287;stroke-miterlimit:1.5;stroke-dasharray:none;stroke-opacity:1"
   id="rect3488"
   width="15.590729"
   height="20.551359"
   x="506.8345"
   y="45.921169" /><rect
   style="clip-rule:evenodd;fill:none;fill-rule:evenodd;stroke:#ff0000;stroke-width:0.283286;stroke-linecap:round;stroke-linejoin:round;stroke-miterlimit:1.5;stroke-dasharray:none;stroke-opacity:1"
   id="rect3488-6"
   width="15.590729"
   height="20.551359"
   x="464.31485"
   y="45.921169" /><rect
   style="clip-rule:evenodd;fill:none;fill-rule:evenodd;stroke:#ff0000;stroke-width:0.283287;stroke-linecap:round;stroke-linejoin:round;stroke-miterlimit:1.5;stroke-dasharray:none;stroke-opacity:1"
   id="rect3488-65"
   width="15.590729"
   height="20.551359"
   x="421.79517"
   y="45.921169" /><rect
   style="clip-rule:evenodd;fill:none;fill-rule:evenodd;stroke:#ff0000;stroke-width:0.283286;stroke-linecap:round;stroke-linejoin:round;stroke-miterlimit:1.5;stroke-dasharray:none;stroke-opacity:1"
   id="rect3488-5"
   width="15.590729"
   height="20.551359"
   x="379.27548"
   y="45.921169" /><rect
   style="clip-rule:evenodd;fill:none;fill-rule:evenodd;stroke:#ff0000;stroke-width:0.283287;stroke-linecap:round;stroke-linejoin:round;stroke-miterlimit:1.5;stroke-dasharray:none;stroke-opacity:1"
   id="rect3488-3"
   width="15.590729"
   height="20.551359"
   x="336.7558"
   y="45.921173" /><rect
   style="clip-rule:evenodd;fill:none;fill-rule:evenodd;stroke:#ff0000;stroke-width:0.283287;stroke-linecap:round;stroke-linejoin:round;stroke-miterlimit:1.5;stroke-dasharray:none;stroke-opacity:1"
   id="rect3488-9"
   width="15.590729"
   height="20.551359"
   x="251.71645"
   y="45.921173" /><rect
   style="clip-rule:evenodd;fill:none;fill-rule:evenodd;stroke:#ff0000;stroke-width:0.283286;stroke-linecap:round;stroke-linejoin:round;stroke-miterlimit:1.5;stroke-dasharray:none;stroke-opacity:1"
   id="rect3488-61"
   width="15.590729"
   height="20.551359"
   x="154.74323"
   y="45.921169" /><rect
   style="clip-rule:evenodd;fill:none;fill-rule:evenodd;stroke:#ff0000;stroke-width:0.283287;stroke-linecap:round;stroke-linejoin:round;stroke-miterlimit:1.5;stroke-dasharray:none;stroke-opacity:1"
   id="rect3488-35"
   width="15.590729"
   height="20.551359"
   x="294.23611"
   y="45.921173" /><rect
   style="clip-rule:evenodd;fill:none;fill-rule:evenodd;stroke:#ff0000;stroke-width:0.283286;stroke-linecap:round;stroke-linejoin:round;stroke-miterlimit:1.5;stroke-dasharray:none;stroke-opacity:1"
   id="rect3488-30"
   width="15.590729"
   height="20.551359"
   x="209.19676"
   y="45.921169" /><rect
   style="clip-rule:evenodd;fill:none;fill-rule:evenodd;stroke:#ff0000;stroke-width:0.283482;stroke-linecap:round;stroke-linejoin:round;stroke-miterlimit:1.5;stroke-dasharray:none;stroke-opacity:1"
   id="rect3488-0"
   width="37.92754"
   height="25.511793"
   x="1063.1453"
   y="42.944889" /><rect
   style="clip-rule:evenodd;fill:none;fill-rule:evenodd;stroke:#ff0000;stroke-width:0.283323;stroke-linecap:round;stroke-linejoin:round;stroke-miterlimit:1.5;stroke-dasharray:none;stroke-opacity:1"
   id="rect3488-94-7"
   width="9.921401"
   height="23.714787"
   x="622.63556"
   y="902.67871" /><rect
   style="clip-rule:evenodd;fill:none;fill-rule:evenodd;stroke:#ff0000;stroke-width:0.284062;stroke-linecap:round;stroke-linejoin:round;stroke-miterlimit:1.5;stroke-dasharray:none;stroke-opacity:1"
   id="rect3488-94-7-7-1"
   width="20.97578"
   height="33.78838"
   x="617.10834"
   y="810.57574" /><rect
   style="clip-rule:evenodd;fill:none;fill-rule:evenodd;stroke:#ff0000;stroke-width:0.283992;stroke-linecap:round;stroke-linejoin:round;stroke-miterlimit:1.5;stroke-dasharray:none;stroke-opacity:1"
   id="rect3488-94-2"
   width="37.70026"
   height="33.731758"
   x="617.10834"
   y="926.39368" /></svg>
