G04*
G04 #@! TF.GenerationSoftware,Altium Limited,Altium Designer,24.3.1 (35)*
G04*
G04 Layer_Color=8388736*
%FSLAX44Y44*%
%MOMM*%
G71*
G04*
G04 #@! TF.SameCoordinates,92BC9782-8992-42D9-9517-A00A7AE7D45C*
G04*
G04*
G04 #@! TF.FilePolarity,Negative*
G04*
G01*
G75*
%ADD11C,0.2000*%
%ADD27R,1.4500X0.9500*%
%ADD29R,0.6480X0.5080*%
G04:AMPARAMS|DCode=31|XSize=1.1mm|YSize=0.6mm|CornerRadius=0.051mm|HoleSize=0mm|Usage=FLASHONLY|Rotation=270.000|XOffset=0mm|YOffset=0mm|HoleType=Round|Shape=RoundedRectangle|*
%AMROUNDEDRECTD31*
21,1,1.1000,0.4980,0,0,270.0*
21,1,0.9980,0.6000,0,0,270.0*
1,1,0.1020,-0.2490,-0.4990*
1,1,0.1020,-0.2490,0.4990*
1,1,0.1020,0.2490,0.4990*
1,1,0.1020,0.2490,-0.4990*
%
%ADD31ROUNDEDRECTD31*%
%ADD33R,0.9500X1.3500*%
%ADD34R,1.3500X0.9500*%
%ADD35R,0.6000X0.5000*%
%ADD38R,0.6811X0.5725*%
%ADD39R,0.2548X0.8080*%
%ADD40R,1.4478X1.7526*%
%ADD41R,0.6900X0.9900*%
%ADD43R,0.9000X0.7500*%
%ADD47R,0.5000X0.4750*%
%ADD48R,0.4725X0.5596*%
%ADD49R,0.5596X0.4725*%
%ADD56R,1.0000X0.7500*%
%ADD61R,0.7000X0.7000*%
%ADD64R,0.6500X0.7000*%
%ADD68R,0.7000X0.7000*%
%ADD72R,0.4750X0.5000*%
%ADD73R,1.2192X0.9144*%
%ADD74R,1.9800X0.5300*%
%ADD75R,0.5588X1.7018*%
%ADD76R,0.8636X2.6162*%
%ADD79R,1.7121X1.0581*%
%ADD81R,0.6000X0.6000*%
%ADD82R,2.0000X3.0000*%
%ADD83R,1.9900X2.3300*%
%ADD85R,0.6000X1.2500*%
%ADD86R,1.5000X1.9000*%
%ADD87R,1.1000X2.2000*%
%ADD97R,0.4000X0.5000*%
%ADD99R,5.0038X3.0988*%
%ADD102R,2.0800X0.8900*%
%ADD103R,1.5200X2.3250*%
%ADD104R,0.7000X1.5000*%
%ADD105R,1.0000X0.8000*%
%ADD108R,0.5000X0.4000*%
%ADD109R,1.1000X1.3500*%
%ADD110R,0.7000X0.6500*%
%ADD113R,1.5032X1.3532*%
%ADD114R,1.8032X3.4032*%
%ADD115R,2.1032X4.3532*%
%ADD116R,1.6532X1.2532*%
%ADD117R,1.5032X1.6532*%
%ADD118R,0.8532X1.1032*%
%ADD119O,0.4032X0.9532*%
%ADD120O,0.9532X0.4032*%
%ADD121R,3.3332X3.3332*%
%ADD122R,4.2000X4.4840*%
%ADD123R,0.7500X0.6750*%
%ADD124R,4.4840X4.2000*%
%ADD125R,0.6750X0.7500*%
%ADD126R,1.2032X1.2532*%
%ADD127R,1.7032X1.7532*%
%ADD128R,0.6032X1.5532*%
%ADD129R,1.2532X1.2032*%
%ADD130R,1.1032X0.9032*%
%ADD131R,1.9032X1.3032*%
%ADD132R,0.9032X1.1032*%
%ADD133R,2.9932X0.9432*%
%ADD134R,1.0032X1.1532*%
%ADD135R,0.9142X1.0162*%
%ADD136O,1.8532X0.5032*%
%ADD137O,0.5032X1.8532*%
%ADD138R,0.8332X1.0332*%
G04:AMPARAMS|DCode=139|XSize=0.8032mm|YSize=1.6532mm|CornerRadius=0.1526mm|HoleSize=0mm|Usage=FLASHONLY|Rotation=90.000|XOffset=0mm|YOffset=0mm|HoleType=Round|Shape=RoundedRectangle|*
%AMROUNDEDRECTD139*
21,1,0.8032,1.3480,0,0,90.0*
21,1,0.4980,1.6532,0,0,90.0*
1,1,0.3052,0.6740,0.2490*
1,1,0.3052,0.6740,-0.2490*
1,1,0.3052,-0.6740,-0.2490*
1,1,0.3052,-0.6740,0.2490*
%
%ADD139ROUNDEDRECTD139*%
%ADD140R,1.6532X1.5032*%
%ADD141R,0.4572X0.8382*%
%ADD142R,0.3810X1.4224*%
%ADD143R,0.2540X0.6858*%
%ADD144R,0.6858X0.2540*%
%ADD145R,0.6096X0.2540*%
%ADD146R,0.2540X0.6096*%
%ADD147R,0.6096X0.4318*%
%ADD148R,0.5588X0.4318*%
%ADD149R,0.8032X0.7532*%
%ADD150R,0.7532X0.7532*%
%ADD151R,1.3032X1.4532*%
%ADD152R,1.4032X2.0032*%
%ADD153R,2.7032X2.7032*%
%ADD154R,17.7032X12.7032*%
%ADD155R,12.7032X17.7032*%
%ADD156R,2.7032X2.7032*%
%ADD157R,2.4892X1.4732*%
%ADD158R,2.9032X1.4532*%
%ADD159R,1.0162X0.9142*%
%ADD160R,1.2192X1.7272*%
%ADD161R,1.3032X1.8532*%
%ADD162R,0.7532X0.7532*%
G04:AMPARAMS|DCode=163|XSize=5.5532mm|YSize=8.7432mm|CornerRadius=0.1551mm|HoleSize=0mm|Usage=FLASHONLY|Rotation=180.000|XOffset=0mm|YOffset=0mm|HoleType=Round|Shape=RoundedRectangle|*
%AMROUNDEDRECTD163*
21,1,5.5532,8.4330,0,0,180.0*
21,1,5.2430,8.7432,0,0,180.0*
1,1,0.3102,-2.6215,4.2165*
1,1,0.3102,2.6215,4.2165*
1,1,0.3102,2.6215,-4.2165*
1,1,0.3102,-2.6215,-4.2165*
%
%ADD163ROUNDEDRECTD163*%
G04:AMPARAMS|DCode=164|XSize=1.0932mm|YSize=2.6132mm|CornerRadius=0.1505mm|HoleSize=0mm|Usage=FLASHONLY|Rotation=180.000|XOffset=0mm|YOffset=0mm|HoleType=Round|Shape=RoundedRectangle|*
%AMROUNDEDRECTD164*
21,1,1.0932,2.3121,0,0,180.0*
21,1,0.7921,2.6132,0,0,180.0*
1,1,0.3011,-0.3961,1.1561*
1,1,0.3011,0.3961,1.1561*
1,1,0.3011,0.3961,-1.1561*
1,1,0.3011,-0.3961,-1.1561*
%
%ADD164ROUNDEDRECTD164*%
%ADD165R,1.1532X1.0032*%
%ADD166R,1.4032X1.3032*%
%ADD167R,1.4032X1.7532*%
%ADD168R,1.4032X1.7532*%
%ADD169C,2.8032*%
%ADD170C,0.2032*%
%ADD171O,1.1032X1.7532*%
%ADD172O,1.4532X1.1532*%
%ADD173R,1.8032X1.8032*%
%ADD174C,1.8032*%
%ADD175R,1.8032X1.8032*%
%ADD176C,2.0032*%
%ADD177C,2.3832*%
%ADD178C,5.2832*%
%ADD179C,1.7832*%
%ADD180C,0.9000*%
%ADD181R,1.7032X3.2032*%
%ADD182C,1.6032*%
%ADD183R,3.7032X1.7032*%
%ADD184R,3.0032X1.7032*%
%ADD185C,0.8032*%
G36*
X120951Y718621D02*
Y724818D01*
X112359D01*
Y722532D01*
X116887D01*
Y718621D01*
X120951D01*
D02*
G37*
G36*
X112359Y752282D02*
X120197D01*
Y758225D01*
X116641D01*
Y754568D01*
X112359D01*
Y752282D01*
D02*
G37*
G36*
X149387Y718621D02*
Y724818D01*
X157979D01*
Y722532D01*
X153451D01*
Y718621D01*
X149387D01*
D02*
G37*
G36*
X157979Y752282D02*
X150141D01*
Y758225D01*
X153697D01*
Y754568D01*
X157979D01*
Y752282D01*
D02*
G37*
D11*
X0Y0D02*
Y1500000D01*
X3000000D01*
Y0D02*
Y1500000D01*
X0Y0D02*
X3000000D01*
D27*
X378550Y98870D02*
D03*
Y118370D02*
D03*
D29*
X202500Y109250D02*
D03*
Y128250D02*
D03*
X224980Y118750D02*
D03*
D31*
X1145360Y780790D02*
D03*
X1135860D02*
D03*
X1126360D02*
D03*
Y754790D02*
D03*
X1145360D02*
D03*
X1644000Y780790D02*
D03*
X1634500D02*
D03*
X1625000D02*
D03*
Y754790D02*
D03*
X1644000D02*
D03*
X2142640Y780790D02*
D03*
X2133140D02*
D03*
X2123640D02*
D03*
Y754790D02*
D03*
X2142640D02*
D03*
X2641280Y780790D02*
D03*
X2631780D02*
D03*
X2622280D02*
D03*
Y754790D02*
D03*
X2641280D02*
D03*
X2289680Y569210D02*
D03*
X2299180D02*
D03*
X2308680D02*
D03*
Y595210D02*
D03*
X2289680D02*
D03*
X1791040Y569210D02*
D03*
X1800540D02*
D03*
X1810040D02*
D03*
Y595210D02*
D03*
X1791040D02*
D03*
X1292400Y569210D02*
D03*
X1301900D02*
D03*
X1311400D02*
D03*
Y595210D02*
D03*
X1292400D02*
D03*
X793760Y569210D02*
D03*
X803260D02*
D03*
X812760D02*
D03*
Y595210D02*
D03*
X793760D02*
D03*
D33*
X651650Y1086880D02*
D03*
X666650D02*
D03*
D34*
X627470Y992780D02*
D03*
Y1007780D02*
D03*
D35*
X415430Y796050D02*
D03*
Y781050D02*
D03*
D38*
X54065Y763550D02*
D03*
X45755D02*
D03*
D39*
X1045361Y753336D02*
D03*
X1050361D02*
D03*
X1055361D02*
D03*
Y782244D02*
D03*
X1050361D02*
D03*
X1045361D02*
D03*
X1544001Y753336D02*
D03*
X1549001D02*
D03*
X1554001D02*
D03*
Y782244D02*
D03*
X1549001D02*
D03*
X1544001D02*
D03*
X2042641Y753336D02*
D03*
X2047641D02*
D03*
X2052641D02*
D03*
Y782244D02*
D03*
X2047641D02*
D03*
X2042641D02*
D03*
X2541281Y753336D02*
D03*
X2546281D02*
D03*
X2551281D02*
D03*
Y782244D02*
D03*
X2546281D02*
D03*
X2541281D02*
D03*
X2389679Y596664D02*
D03*
X2384680D02*
D03*
X2379680D02*
D03*
Y567756D02*
D03*
X2384680D02*
D03*
X2389679D02*
D03*
X1891040Y596664D02*
D03*
X1886040D02*
D03*
X1881040D02*
D03*
Y567756D02*
D03*
X1886040D02*
D03*
X1891040D02*
D03*
X1392399Y596664D02*
D03*
X1387399D02*
D03*
X1382399D02*
D03*
Y567756D02*
D03*
X1387399D02*
D03*
X1392399D02*
D03*
X893760Y596664D02*
D03*
X888760D02*
D03*
X883760D02*
D03*
Y567756D02*
D03*
X888760D02*
D03*
X893760D02*
D03*
X943761Y753336D02*
D03*
X948761D02*
D03*
X953761D02*
D03*
Y782244D02*
D03*
X948761D02*
D03*
X943761D02*
D03*
X1442401Y753336D02*
D03*
X1447401D02*
D03*
X1452401D02*
D03*
Y782244D02*
D03*
X1447401D02*
D03*
X1442401D02*
D03*
X1941041Y753336D02*
D03*
X1946041D02*
D03*
X1951041D02*
D03*
Y782244D02*
D03*
X1946041D02*
D03*
X1941041D02*
D03*
X2439680Y753336D02*
D03*
X2444680D02*
D03*
X2449680D02*
D03*
Y782244D02*
D03*
X2444680D02*
D03*
X2439680D02*
D03*
X2491279Y596664D02*
D03*
X2486279D02*
D03*
X2481279D02*
D03*
Y567756D02*
D03*
X2486279D02*
D03*
X2491279D02*
D03*
X1992640Y596664D02*
D03*
X1987640D02*
D03*
X1982640D02*
D03*
Y567756D02*
D03*
X1987640D02*
D03*
X1992640D02*
D03*
X1493999Y596664D02*
D03*
X1488999D02*
D03*
X1483999D02*
D03*
Y567756D02*
D03*
X1488999D02*
D03*
X1493999D02*
D03*
X995360Y596664D02*
D03*
X990360D02*
D03*
X985360D02*
D03*
Y567756D02*
D03*
X990360D02*
D03*
X995360D02*
D03*
D40*
X1050361Y767790D02*
D03*
X1549001Y767790D02*
D03*
X2047641Y767790D02*
D03*
X2546281D02*
D03*
X2384680Y582210D02*
D03*
X1886040D02*
D03*
X1387399D02*
D03*
X888760D02*
D03*
X948761Y767790D02*
D03*
X1447401Y767790D02*
D03*
X1946041Y767790D02*
D03*
X2444680D02*
D03*
X2486279Y582210D02*
D03*
X1987640D02*
D03*
X1488999D02*
D03*
X990360D02*
D03*
D41*
X509200Y107400D02*
D03*
X528200D02*
D03*
Y81500D02*
D03*
X518700D02*
D03*
X509200D02*
D03*
D43*
X496330Y229280D02*
D03*
Y217280D02*
D03*
X546200Y95400D02*
D03*
Y107400D02*
D03*
X686650Y744000D02*
D03*
Y756000D02*
D03*
D47*
X50930Y925705D02*
D03*
Y915455D02*
D03*
D48*
Y793548D02*
D03*
Y801072D02*
D03*
D49*
X220933Y292270D02*
D03*
X213407D02*
D03*
D56*
X566820Y122400D02*
D03*
Y137400D02*
D03*
X575780Y391520D02*
D03*
Y376520D02*
D03*
D61*
X1165361Y754790D02*
D03*
Y768790D02*
D03*
X2661281D02*
D03*
Y754790D02*
D03*
X2162641Y768790D02*
D03*
Y754790D02*
D03*
X1771039Y595210D02*
D03*
Y581210D02*
D03*
X1272399Y595210D02*
D03*
Y581210D02*
D03*
X1664001Y754790D02*
D03*
Y768790D02*
D03*
X773760Y581210D02*
D03*
Y595210D02*
D03*
X585650Y743000D02*
D03*
Y757000D02*
D03*
X2269679Y581210D02*
D03*
Y595210D02*
D03*
X647630Y1007780D02*
D03*
Y993780D02*
D03*
D64*
X138050Y673250D02*
D03*
X151550D02*
D03*
D68*
X574200Y825070D02*
D03*
X560200D02*
D03*
X302830Y470020D02*
D03*
X288830D02*
D03*
X560200Y975020D02*
D03*
X574200D02*
D03*
X57250Y688550D02*
D03*
X43250D02*
D03*
X1641501Y800040D02*
D03*
X1627500D02*
D03*
X796261Y549960D02*
D03*
X810261D02*
D03*
X1142860Y800040D02*
D03*
X1128860D02*
D03*
X2292180Y549960D02*
D03*
X2306180D02*
D03*
X1294899D02*
D03*
X1308900D02*
D03*
X2624780Y800040D02*
D03*
X2638780D02*
D03*
X2126140D02*
D03*
X2140141D02*
D03*
X1807540Y549960D02*
D03*
X1793540D02*
D03*
D72*
X190245Y292270D02*
D03*
X179995D02*
D03*
D73*
X666650Y1007783D02*
D03*
Y975017D02*
D03*
X605650Y1007783D02*
D03*
Y975017D02*
D03*
X666650Y792307D02*
D03*
Y825073D02*
D03*
X605650Y792307D02*
D03*
Y825073D02*
D03*
D74*
X660800Y769050D02*
D03*
Y756350D02*
D03*
Y743650D02*
D03*
Y730950D02*
D03*
X611500D02*
D03*
Y743650D02*
D03*
Y756350D02*
D03*
Y769050D02*
D03*
D75*
X522100Y846192D02*
D03*
X560200Y953888D02*
D03*
X547500D02*
D03*
X534800D02*
D03*
X522100D02*
D03*
X534800Y846192D02*
D03*
X547500D02*
D03*
X560200D02*
D03*
D76*
X605650Y846065D02*
D03*
X636150D02*
D03*
X666650D02*
D03*
Y954015D02*
D03*
X636150D02*
D03*
X605650D02*
D03*
D79*
X1050360Y735540D02*
D03*
Y707000D02*
D03*
X1549000Y735540D02*
D03*
Y707000D02*
D03*
X2047640Y735540D02*
D03*
Y707000D02*
D03*
X2546280Y735540D02*
D03*
Y707000D02*
D03*
X2384680Y614460D02*
D03*
Y643000D02*
D03*
X1886040Y614460D02*
D03*
Y643000D02*
D03*
X1387400Y614460D02*
D03*
Y643000D02*
D03*
X888760Y614460D02*
D03*
Y643000D02*
D03*
X948760Y735540D02*
D03*
Y707000D02*
D03*
X1447400Y735540D02*
D03*
Y707000D02*
D03*
X1946040Y735540D02*
D03*
Y707000D02*
D03*
X2444680Y735540D02*
D03*
Y707000D02*
D03*
X2486280Y614460D02*
D03*
Y643000D02*
D03*
X1987640Y614460D02*
D03*
Y643000D02*
D03*
X1489000Y614460D02*
D03*
Y643000D02*
D03*
X990360Y614460D02*
D03*
Y643000D02*
D03*
D81*
X67500Y718850D02*
D03*
Y708350D02*
D03*
D82*
X240000Y326870D02*
D03*
X180000D02*
D03*
X189500Y945700D02*
D03*
X129500D02*
D03*
D83*
X189700Y895700D02*
D03*
X129500D02*
D03*
D85*
X302830Y351520D02*
D03*
X284830D02*
D03*
D86*
X868361Y491460D02*
D03*
X893761D02*
D03*
Y408460D02*
D03*
X842961D02*
D03*
Y491460D02*
D03*
X1569400Y858540D02*
D03*
X1544000D02*
D03*
Y941540D02*
D03*
X1594800D02*
D03*
Y858540D02*
D03*
X1467801Y858540D02*
D03*
X1442401D02*
D03*
Y941540D02*
D03*
X1493201D02*
D03*
Y858540D02*
D03*
X969960Y491460D02*
D03*
X995360D02*
D03*
Y408460D02*
D03*
X944560D02*
D03*
Y491460D02*
D03*
X969161Y858540D02*
D03*
X943761D02*
D03*
Y941540D02*
D03*
X994561D02*
D03*
Y858540D02*
D03*
X1070760Y858540D02*
D03*
X1045360D02*
D03*
Y941540D02*
D03*
X1096160D02*
D03*
Y858540D02*
D03*
X2338880Y491460D02*
D03*
Y408460D02*
D03*
X2389680D02*
D03*
Y491460D02*
D03*
X2364280D02*
D03*
X2440480Y491460D02*
D03*
Y408460D02*
D03*
X2491280D02*
D03*
Y491460D02*
D03*
X2465880D02*
D03*
X1367000Y491460D02*
D03*
X1392400D02*
D03*
Y408460D02*
D03*
X1341600D02*
D03*
Y491460D02*
D03*
X1468600Y491460D02*
D03*
X1494000D02*
D03*
Y408460D02*
D03*
X1443200D02*
D03*
Y491460D02*
D03*
X1840240Y491460D02*
D03*
Y408460D02*
D03*
X1891040D02*
D03*
Y491460D02*
D03*
X1865640D02*
D03*
X1941840Y491460D02*
D03*
Y408460D02*
D03*
X1992640D02*
D03*
Y491460D02*
D03*
X1967240D02*
D03*
X2490480Y858540D02*
D03*
Y941540D02*
D03*
X2439680D02*
D03*
Y858540D02*
D03*
X2465080D02*
D03*
X2592080Y858540D02*
D03*
Y941540D02*
D03*
X2541280D02*
D03*
Y858540D02*
D03*
X2566680D02*
D03*
X1991841Y858540D02*
D03*
Y941540D02*
D03*
X1941041D02*
D03*
Y858540D02*
D03*
X1966441D02*
D03*
X2093441Y858540D02*
D03*
Y941540D02*
D03*
X2042641D02*
D03*
Y858540D02*
D03*
X2068041D02*
D03*
D87*
X213000Y434110D02*
D03*
X180000D02*
D03*
X180000Y371360D02*
D03*
X213000D02*
D03*
X180000Y402610D02*
D03*
X213000D02*
D03*
D97*
X179550Y758550D02*
D03*
X171550D02*
D03*
X54250Y703550D02*
D03*
X46250D02*
D03*
Y718550D02*
D03*
X54250D02*
D03*
D99*
X71250Y541504D02*
D03*
Y650516D02*
D03*
D102*
X101550Y167750D02*
D03*
Y193150D02*
D03*
Y218550D02*
D03*
D103*
X12350Y246925D02*
D03*
Y139375D02*
D03*
D104*
X245500Y36500D02*
D03*
X260500D02*
D03*
X215500D02*
D03*
D105*
X201500Y28650D02*
D03*
X274500D02*
D03*
X201500Y9350D02*
D03*
X274500D02*
D03*
D108*
X99500Y761420D02*
D03*
Y753420D02*
D03*
X194550Y725550D02*
D03*
Y733550D02*
D03*
D109*
X129500Y855700D02*
D03*
X162500D02*
D03*
X129500Y835700D02*
D03*
X162500D02*
D03*
X129500Y815700D02*
D03*
X162500D02*
D03*
X129500Y795700D02*
D03*
X162500D02*
D03*
D110*
X113800Y673250D02*
D03*
Y686750D02*
D03*
D113*
X378550Y56790D02*
D03*
Y79290D02*
D03*
D114*
X226380Y193150D02*
D03*
Y243150D02*
D03*
D115*
X412940Y193150D02*
D03*
Y262650D02*
D03*
D116*
X353550Y118370D02*
D03*
Y99870D02*
D03*
X277350Y118750D02*
D03*
Y100250D02*
D03*
X30000Y907200D02*
D03*
Y925700D02*
D03*
D117*
X302830Y400020D02*
D03*
X286830D02*
D03*
D118*
X648700Y348565D02*
D03*
X667700D02*
D03*
Y324565D02*
D03*
X658200D02*
D03*
X648700D02*
D03*
D119*
X535080Y192280D02*
D03*
X530080D02*
D03*
X525080D02*
D03*
X520080D02*
D03*
X515080D02*
D03*
X510080D02*
D03*
X505080D02*
D03*
Y144780D02*
D03*
X510080D02*
D03*
X515080D02*
D03*
X520080D02*
D03*
X525080D02*
D03*
X530080D02*
D03*
X535080D02*
D03*
D120*
X496330Y183530D02*
D03*
Y178530D02*
D03*
Y173530D02*
D03*
Y168530D02*
D03*
Y163530D02*
D03*
Y158530D02*
D03*
Y153530D02*
D03*
X543830D02*
D03*
Y158530D02*
D03*
Y163530D02*
D03*
Y168530D02*
D03*
Y173530D02*
D03*
Y178530D02*
D03*
Y183530D02*
D03*
D121*
X520080Y168530D02*
D03*
D122*
X168780Y522450D02*
D03*
D123*
X144030Y503400D02*
D03*
X199075D02*
D03*
Y516100D02*
D03*
Y528800D02*
D03*
Y541500D02*
D03*
X144030Y516100D02*
D03*
Y541500D02*
D03*
Y528800D02*
D03*
D124*
X52200Y473110D02*
D03*
D125*
X71250Y448360D02*
D03*
Y503405D02*
D03*
X58550D02*
D03*
X45850D02*
D03*
X33150D02*
D03*
X58550Y448360D02*
D03*
X33150D02*
D03*
X45850D02*
D03*
D126*
X564010Y1016150D02*
D03*
Y1031150D02*
D03*
X908760Y596660D02*
D03*
Y581660D02*
D03*
X1906040Y596660D02*
D03*
Y581660D02*
D03*
X2007639Y596660D02*
D03*
Y581660D02*
D03*
X1427401Y753339D02*
D03*
Y768339D02*
D03*
X1529001Y753339D02*
D03*
Y768339D02*
D03*
X1010360Y581660D02*
D03*
Y596660D02*
D03*
X928761Y753339D02*
D03*
Y768340D02*
D03*
X1030361Y753339D02*
D03*
Y768340D02*
D03*
X518290Y1016150D02*
D03*
Y1031150D02*
D03*
X2404680Y596660D02*
D03*
Y581660D02*
D03*
X2506279D02*
D03*
Y596660D02*
D03*
X1407400D02*
D03*
Y581660D02*
D03*
X1508999Y596660D02*
D03*
Y581660D02*
D03*
X2526280Y768340D02*
D03*
Y753339D02*
D03*
X2424681Y768340D02*
D03*
Y753339D02*
D03*
X1926041Y768340D02*
D03*
Y753339D02*
D03*
X579830Y560020D02*
D03*
Y575020D02*
D03*
X2027641Y768340D02*
D03*
Y753339D02*
D03*
X579830Y505020D02*
D03*
Y490020D02*
D03*
X317830Y500020D02*
D03*
Y485020D02*
D03*
X317830Y555020D02*
D03*
Y540020D02*
D03*
D127*
X556200Y14500D02*
D03*
X536200D02*
D03*
D128*
X559200Y41500D02*
D03*
X552700D02*
D03*
X546200D02*
D03*
X539700D02*
D03*
X533200D02*
D03*
D129*
X650700Y361565D02*
D03*
X665700D02*
D03*
X302830Y420020D02*
D03*
X287830D02*
D03*
X287830Y435020D02*
D03*
X302830D02*
D03*
X287830Y450020D02*
D03*
X302830D02*
D03*
X287830Y371360D02*
D03*
X302830D02*
D03*
X331830Y351520D02*
D03*
X346830D02*
D03*
X195000Y473110D02*
D03*
X180000D02*
D03*
X396330Y351520D02*
D03*
X411330D02*
D03*
X536330Y351520D02*
D03*
X521330D02*
D03*
X401330Y613520D02*
D03*
X416330D02*
D03*
X144500Y775700D02*
D03*
X129500D02*
D03*
X180000Y457360D02*
D03*
X195000D02*
D03*
X466330Y613520D02*
D03*
X481330D02*
D03*
X451330Y351520D02*
D03*
X466330D02*
D03*
X381330Y351520D02*
D03*
X366330D02*
D03*
D130*
X667700Y298065D02*
D03*
Y312065D02*
D03*
X648700Y298065D02*
D03*
Y312065D02*
D03*
X566330Y231280D02*
D03*
Y217280D02*
D03*
X551330Y231280D02*
D03*
Y217280D02*
D03*
X547500Y825070D02*
D03*
Y811070D02*
D03*
X317830Y657520D02*
D03*
Y643520D02*
D03*
X332830D02*
D03*
Y657520D02*
D03*
X534800Y811070D02*
D03*
Y825070D02*
D03*
X548770Y1016150D02*
D03*
Y1030150D02*
D03*
X533530Y1016150D02*
D03*
Y1030150D02*
D03*
X199000Y567950D02*
D03*
Y581950D02*
D03*
X551330Y252520D02*
D03*
Y266520D02*
D03*
X566330Y252520D02*
D03*
Y266520D02*
D03*
X16750Y489400D02*
D03*
Y503400D02*
D03*
X1070360Y768240D02*
D03*
Y782240D02*
D03*
X1569000Y768240D02*
D03*
Y782240D02*
D03*
X2067640Y768240D02*
D03*
Y782240D02*
D03*
X2566280Y768240D02*
D03*
Y782240D02*
D03*
X2364680Y581760D02*
D03*
Y567760D02*
D03*
X1866040Y581760D02*
D03*
Y567760D02*
D03*
X1367400Y581760D02*
D03*
Y567760D02*
D03*
X868760Y581760D02*
D03*
Y567760D02*
D03*
X968760Y782240D02*
D03*
Y768240D02*
D03*
X1467400Y782240D02*
D03*
Y768240D02*
D03*
X1966040Y782240D02*
D03*
Y768240D02*
D03*
X2464680Y782240D02*
D03*
Y768240D02*
D03*
X2466280Y567760D02*
D03*
Y581760D02*
D03*
X1967640Y567760D02*
D03*
Y581760D02*
D03*
X1469000Y567760D02*
D03*
Y581760D02*
D03*
X970360Y567760D02*
D03*
Y581760D02*
D03*
X496330Y336520D02*
D03*
Y350520D02*
D03*
X210640Y733550D02*
D03*
Y719550D02*
D03*
X536330Y231280D02*
D03*
Y217280D02*
D03*
D131*
X516330Y217280D02*
D03*
Y243280D02*
D03*
X566820Y107400D02*
D03*
Y81400D02*
D03*
D132*
X455010Y110300D02*
D03*
X441010D02*
D03*
Y95300D02*
D03*
X455010D02*
D03*
D133*
X468260Y65300D02*
D03*
Y52600D02*
D03*
Y39900D02*
D03*
Y27200D02*
D03*
Y14500D02*
D03*
X427560D02*
D03*
Y27200D02*
D03*
Y39900D02*
D03*
Y52600D02*
D03*
Y65300D02*
D03*
D134*
X441010Y80300D02*
D03*
X453510D02*
D03*
Y125300D02*
D03*
X441010D02*
D03*
X245500Y60000D02*
D03*
X258500D02*
D03*
X202500Y60000D02*
D03*
X215500D02*
D03*
D135*
X574440Y61500D02*
D03*
X559200D02*
D03*
X533530Y796070D02*
D03*
X548770D02*
D03*
X548770Y975020D02*
D03*
X533530D02*
D03*
X533530Y1124700D02*
D03*
X548770D02*
D03*
D136*
X342834Y425020D02*
D03*
Y420020D02*
D03*
Y440020D02*
D03*
Y430020D02*
D03*
Y435020D02*
D03*
Y400020D02*
D03*
Y395020D02*
D03*
Y415020D02*
D03*
Y405020D02*
D03*
Y410020D02*
D03*
Y460020D02*
D03*
Y475020D02*
D03*
Y465020D02*
D03*
Y470020D02*
D03*
Y455020D02*
D03*
Y445020D02*
D03*
Y450020D02*
D03*
Y510020D02*
D03*
Y505020D02*
D03*
Y525020D02*
D03*
Y515020D02*
D03*
Y520020D02*
D03*
Y485020D02*
D03*
Y480020D02*
D03*
Y500020D02*
D03*
Y490020D02*
D03*
Y495020D02*
D03*
Y555020D02*
D03*
Y550020D02*
D03*
Y570020D02*
D03*
Y560020D02*
D03*
Y565020D02*
D03*
Y535020D02*
D03*
Y530020D02*
D03*
Y540020D02*
D03*
Y545020D02*
D03*
X554834Y425020D02*
D03*
Y420020D02*
D03*
Y440020D02*
D03*
Y430020D02*
D03*
Y435020D02*
D03*
Y400020D02*
D03*
Y395020D02*
D03*
Y415020D02*
D03*
Y405020D02*
D03*
Y410020D02*
D03*
Y460020D02*
D03*
Y475020D02*
D03*
Y465020D02*
D03*
Y470020D02*
D03*
Y455020D02*
D03*
Y445020D02*
D03*
Y450020D02*
D03*
Y510020D02*
D03*
Y505020D02*
D03*
Y525020D02*
D03*
Y515020D02*
D03*
Y520020D02*
D03*
Y485020D02*
D03*
Y480020D02*
D03*
Y500020D02*
D03*
Y490020D02*
D03*
Y495020D02*
D03*
Y565020D02*
D03*
Y560020D02*
D03*
Y570020D02*
D03*
Y540020D02*
D03*
Y530020D02*
D03*
Y535020D02*
D03*
Y555020D02*
D03*
Y545020D02*
D03*
Y550020D02*
D03*
D137*
X411334Y376520D02*
D03*
X401334D02*
D03*
X406334D02*
D03*
X431334D02*
D03*
X436334D02*
D03*
X416334D02*
D03*
X426334D02*
D03*
X421334D02*
D03*
X366334D02*
D03*
X371334D02*
D03*
X361334D02*
D03*
X391334D02*
D03*
X396334D02*
D03*
X376334D02*
D03*
X386334D02*
D03*
X381334D02*
D03*
X411334Y588520D02*
D03*
X431334D02*
D03*
X436334D02*
D03*
X416334D02*
D03*
X426334D02*
D03*
X421334D02*
D03*
X371334D02*
D03*
X376334D02*
D03*
X361334D02*
D03*
X366334D02*
D03*
X396334D02*
D03*
X406334D02*
D03*
X401334D02*
D03*
X381334D02*
D03*
X391334D02*
D03*
X386334D02*
D03*
X506334Y376520D02*
D03*
X511334D02*
D03*
X491334D02*
D03*
X501334D02*
D03*
X496334D02*
D03*
X531334D02*
D03*
X536334D02*
D03*
X516334D02*
D03*
X526334D02*
D03*
X521334D02*
D03*
X456334D02*
D03*
X461334D02*
D03*
X441334D02*
D03*
X451334D02*
D03*
X446334D02*
D03*
X481334D02*
D03*
X486334D02*
D03*
X466334D02*
D03*
X476334D02*
D03*
X471334D02*
D03*
X491334Y588520D02*
D03*
X501334D02*
D03*
X496334D02*
D03*
X521334D02*
D03*
X526334D02*
D03*
X506334D02*
D03*
X516334D02*
D03*
X511334D02*
D03*
X456334D02*
D03*
X461334D02*
D03*
X441334D02*
D03*
X451334D02*
D03*
X446334D02*
D03*
X481334D02*
D03*
X486334D02*
D03*
X466334D02*
D03*
X476334D02*
D03*
X471334D02*
D03*
X531334D02*
D03*
X536334D02*
D03*
D138*
X206020Y272270D02*
D03*
X228320D02*
D03*
D139*
X666650Y1030150D02*
D03*
Y1042850D02*
D03*
Y1055550D02*
D03*
Y1068250D02*
D03*
X612150Y1030150D02*
D03*
Y1042850D02*
D03*
Y1055550D02*
D03*
Y1068250D02*
D03*
D140*
X432940Y780050D02*
D03*
Y796050D02*
D03*
D141*
X141800Y755050D02*
D03*
X124300Y754925D02*
D03*
X146800Y755050D02*
D03*
X129300Y754925D02*
D03*
X136800Y755050D02*
D03*
D142*
X135550Y738550D02*
D03*
X141800D02*
D03*
X129300D02*
D03*
D143*
X125050Y722050D02*
D03*
X146050D02*
D03*
D144*
X116550Y733550D02*
D03*
Y743550D02*
D03*
X154550D02*
D03*
Y733550D02*
D03*
X116550Y738550D02*
D03*
X154550D02*
D03*
D145*
X116169Y728550D02*
D03*
Y748550D02*
D03*
X154931D02*
D03*
Y728550D02*
D03*
D146*
X138050Y721669D02*
D03*
X133050D02*
D03*
D147*
X118919Y723675D02*
D03*
X151419D02*
D03*
D148*
X118419Y753425D02*
D03*
X151919D02*
D03*
D149*
X46000Y733550D02*
D03*
X54500D02*
D03*
D150*
X162500Y766700D02*
D03*
Y775700D02*
D03*
D151*
X614780Y328520D02*
D03*
Y311520D02*
D03*
X560780Y334520D02*
D03*
Y351520D02*
D03*
D152*
X599780Y311520D02*
D03*
X575780Y351520D02*
D03*
X599780D02*
D03*
X575780Y311520D02*
D03*
D153*
X1654001Y971239D02*
D03*
X1544001D02*
D03*
X783760Y378760D02*
D03*
X893761D02*
D03*
X1155360Y971240D02*
D03*
X1045360D02*
D03*
X2042640D02*
D03*
X2152641D02*
D03*
X2541280D02*
D03*
X2651280D02*
D03*
X2279680Y378760D02*
D03*
X2389680D02*
D03*
X1282400D02*
D03*
X1392400D02*
D03*
X1891040D02*
D03*
X1781040D02*
D03*
D154*
X1599000Y1101239D02*
D03*
X838761Y248760D02*
D03*
X1100360Y1101240D02*
D03*
X2097641D02*
D03*
X2596280D02*
D03*
X2334680Y248760D02*
D03*
X1337400D02*
D03*
X1836040D02*
D03*
D155*
X1312400Y1046240D02*
D03*
X1125360Y303760D02*
D03*
X813760Y1046240D02*
D03*
X2621280Y303760D02*
D03*
X1624000D02*
D03*
X1811040Y1046240D02*
D03*
X2309680D02*
D03*
X2122640Y303760D02*
D03*
D156*
X1442400Y991240D02*
D03*
Y1101240D02*
D03*
X995361Y248760D02*
D03*
Y358760D02*
D03*
X943760Y991240D02*
D03*
Y1101240D02*
D03*
X2491280Y248760D02*
D03*
Y358760D02*
D03*
X1494000D02*
D03*
Y248760D02*
D03*
X1941040Y991240D02*
D03*
Y1101240D02*
D03*
X2439680Y991240D02*
D03*
Y1101240D02*
D03*
X1992640Y358759D02*
D03*
Y248760D02*
D03*
D157*
X1856040Y642400D02*
D03*
Y614460D02*
D03*
X1916040Y642400D02*
D03*
Y614460D02*
D03*
X2017639Y642400D02*
D03*
Y614460D02*
D03*
X1957640Y642400D02*
D03*
Y614460D02*
D03*
X1477401Y707599D02*
D03*
Y735539D02*
D03*
X1417401Y707599D02*
D03*
Y735539D02*
D03*
X1519001Y707599D02*
D03*
Y735539D02*
D03*
X1579001Y707599D02*
D03*
Y735539D02*
D03*
X858760Y642400D02*
D03*
Y614460D02*
D03*
X960360Y642400D02*
D03*
Y614460D02*
D03*
X1020360D02*
D03*
Y642400D02*
D03*
X918760D02*
D03*
Y614460D02*
D03*
X918761Y707600D02*
D03*
Y735540D02*
D03*
X978761Y707600D02*
D03*
Y735540D02*
D03*
X1080361Y707600D02*
D03*
Y735540D02*
D03*
X1020361D02*
D03*
Y707600D02*
D03*
X2516279Y642400D02*
D03*
Y614460D02*
D03*
X2414679Y642400D02*
D03*
Y614460D02*
D03*
X2354680Y642400D02*
D03*
Y614460D02*
D03*
X2456280D02*
D03*
Y642400D02*
D03*
X1518999D02*
D03*
Y614460D02*
D03*
X1459000Y642400D02*
D03*
Y614460D02*
D03*
X1357399Y642400D02*
D03*
Y614460D02*
D03*
X1417399Y642400D02*
D03*
Y614460D02*
D03*
X2516281Y735540D02*
D03*
Y707600D02*
D03*
X2474680Y735540D02*
D03*
Y707600D02*
D03*
X2576281Y735540D02*
D03*
Y707600D02*
D03*
X1976041Y735540D02*
D03*
Y707600D02*
D03*
X2017641Y735540D02*
D03*
Y707600D02*
D03*
X2077641Y735540D02*
D03*
Y707600D02*
D03*
X1916041Y735540D02*
D03*
Y707600D02*
D03*
X2414681Y735540D02*
D03*
Y707600D02*
D03*
D158*
X1442400Y800040D02*
D03*
Y828540D02*
D03*
X1544001D02*
D03*
Y800040D02*
D03*
X995360Y549960D02*
D03*
Y521460D02*
D03*
X893760D02*
D03*
Y549960D02*
D03*
X943760Y800040D02*
D03*
Y828540D02*
D03*
X1045361D02*
D03*
Y800040D02*
D03*
X2389680Y521460D02*
D03*
Y549960D02*
D03*
X2491280Y549960D02*
D03*
Y521460D02*
D03*
X1494000Y549960D02*
D03*
Y521460D02*
D03*
X1392400D02*
D03*
Y549960D02*
D03*
X1891040D02*
D03*
Y521460D02*
D03*
X2541280Y800040D02*
D03*
Y828540D02*
D03*
X1941041D02*
D03*
Y800040D02*
D03*
X2042641D02*
D03*
Y828540D02*
D03*
X2439680D02*
D03*
Y800040D02*
D03*
X1992640Y521460D02*
D03*
Y549960D02*
D03*
D159*
X1654001Y800040D02*
D03*
Y815280D02*
D03*
X1615000D02*
D03*
Y800040D02*
D03*
X783760Y534720D02*
D03*
Y549960D02*
D03*
X822760D02*
D03*
Y534720D02*
D03*
X636150Y792310D02*
D03*
Y807550D02*
D03*
X1155361Y800040D02*
D03*
Y815280D02*
D03*
X1116360Y800040D02*
D03*
Y815280D02*
D03*
X2318680Y534720D02*
D03*
Y549960D02*
D03*
X2279680Y534720D02*
D03*
Y549960D02*
D03*
X1321400Y534720D02*
D03*
Y549960D02*
D03*
X1282400D02*
D03*
Y534720D02*
D03*
X1781040D02*
D03*
Y549960D02*
D03*
X2612280Y800040D02*
D03*
Y815280D02*
D03*
X2651280D02*
D03*
Y800040D02*
D03*
X2113641D02*
D03*
Y815280D02*
D03*
X2152641D02*
D03*
Y800040D02*
D03*
X71000Y925700D02*
D03*
X1820040Y549960D02*
D03*
Y534720D02*
D03*
X71000Y910460D02*
D03*
X99500Y925700D02*
D03*
Y910460D02*
D03*
X536330Y266520D02*
D03*
Y251280D02*
D03*
D160*
X1633681Y858539D02*
D03*
X1654001D02*
D03*
X783760Y491460D02*
D03*
X804080D02*
D03*
X1135041Y858540D02*
D03*
X1155360D02*
D03*
X2300000Y491460D02*
D03*
X2279680D02*
D03*
X1302720D02*
D03*
X1282400D02*
D03*
X2152641Y858540D02*
D03*
X2132321D02*
D03*
X2651280D02*
D03*
X2630960D02*
D03*
X1781040Y491460D02*
D03*
X1801360D02*
D03*
D161*
X99500Y945700D02*
D03*
X71000D02*
D03*
D162*
X45750Y748550D02*
D03*
X54750D02*
D03*
D163*
X315450Y269450D02*
D03*
D164*
X353550Y193150D02*
D03*
X340850D02*
D03*
X328150D02*
D03*
X315450D02*
D03*
X302750D02*
D03*
X290050D02*
D03*
X277350D02*
D03*
D165*
X353550Y70290D02*
D03*
Y56790D02*
D03*
D166*
X30000Y814550D02*
D03*
Y793550D02*
D03*
X277350Y60000D02*
D03*
Y81000D02*
D03*
D167*
X575201Y14503D02*
D03*
D168*
X517200Y14498D02*
D03*
D169*
X2960000Y1200000D02*
D03*
X2884000D02*
D03*
X2960000Y1050000D02*
D03*
X2884000D02*
D03*
X2960000Y900000D02*
D03*
X2884000D02*
D03*
X2960000Y750000D02*
D03*
X2884000D02*
D03*
X2960000Y600000D02*
D03*
X2884000D02*
D03*
X2960000Y450000D02*
D03*
X2884000D02*
D03*
X2960000Y300000D02*
D03*
X2884000D02*
D03*
X2960000Y150000D02*
D03*
X2884000D02*
D03*
X2960000Y1392100D02*
D03*
X2884000D02*
D03*
D170*
X2960000Y40000D02*
D03*
X40000D02*
D03*
Y1460000D02*
D03*
X2960000D02*
D03*
D171*
X511200Y14500D02*
D03*
X581200D02*
D03*
D172*
X521200Y41500D02*
D03*
X571200D02*
D03*
D173*
X652140Y20000D02*
D03*
Y248600D02*
D03*
D174*
X677540Y20000D02*
D03*
X652140Y45400D02*
D03*
X677540D02*
D03*
X652140Y70800D02*
D03*
X677540D02*
D03*
X652140Y96200D02*
D03*
X677540D02*
D03*
X652140Y121600D02*
D03*
X677540D02*
D03*
X652140Y147000D02*
D03*
Y172400D02*
D03*
Y197800D02*
D03*
Y223200D02*
D03*
X677540Y147000D02*
D03*
Y172400D02*
D03*
Y197800D02*
D03*
Y223200D02*
D03*
Y248600D02*
D03*
X547130Y301520D02*
D03*
X521730D02*
D03*
D175*
X496330D02*
D03*
D176*
X415430Y950840D02*
D03*
Y849240D02*
D03*
D177*
X50930Y1182200D02*
D03*
X533530Y1284200D02*
D03*
Y1176200D02*
D03*
X50930Y1385400D02*
D03*
X533530Y1392100D02*
D03*
D178*
X217160Y1194200D02*
D03*
X86930Y1372000D02*
D03*
D179*
X177930Y1385400D02*
D03*
X152530D02*
D03*
X127130D02*
D03*
D180*
X223000Y19000D02*
D03*
X253000D02*
D03*
D181*
X90000Y39250D02*
D03*
X180000D02*
D03*
D182*
X135000Y19250D02*
D03*
D183*
Y109250D02*
D03*
D184*
Y49250D02*
D03*
D185*
X378550Y39900D02*
D03*
X412940Y301520D02*
D03*
X1810040Y610210D02*
D03*
X509200Y61500D02*
D03*
X520080Y168530D02*
D03*
X712740Y615000D02*
D03*
Y630000D02*
D03*
Y645000D02*
D03*
Y660000D02*
D03*
Y690000D02*
D03*
Y705000D02*
D03*
Y720000D02*
D03*
Y735000D02*
D03*
X362580Y133670D02*
D03*
Y147880D02*
D03*
Y161550D02*
D03*
X410490Y133670D02*
D03*
Y147880D02*
D03*
Y161550D02*
D03*
X378550Y162100D02*
D03*
Y133670D02*
D03*
X315450Y334990D02*
D03*
X492160Y39900D02*
D03*
X594830Y560020D02*
D03*
Y575020D02*
D03*
Y405020D02*
D03*
X579830Y415020D02*
D03*
X594830Y425020D02*
D03*
X496330Y266200D02*
D03*
X536330Y241280D02*
D03*
X506200Y203905D02*
D03*
X536330Y276520D02*
D03*
X551330D02*
D03*
X546200Y122400D02*
D03*
X566330Y276520D02*
D03*
X546200Y81400D02*
D03*
X521330Y336520D02*
D03*
X553830Y163530D02*
D03*
X468260Y95300D02*
D03*
X402560Y39900D02*
D03*
X546200Y61500D02*
D03*
X367830Y455020D02*
D03*
X431330Y410670D02*
D03*
X371330Y395020D02*
D03*
X446330Y410670D02*
D03*
X476330Y391520D02*
D03*
X506330D02*
D03*
X476330Y420670D02*
D03*
X461330Y430670D02*
D03*
X371330Y410020D02*
D03*
X317830Y598520D02*
D03*
X495340Y566020D02*
D03*
X481330Y558520D02*
D03*
X466330Y551020D02*
D03*
X214070Y503400D02*
D03*
Y528800D02*
D03*
X179550Y713550D02*
D03*
X394520Y133670D02*
D03*
Y147880D02*
D03*
Y162100D02*
D03*
X597150Y1042850D02*
D03*
X873760Y1162660D02*
D03*
X858760D02*
D03*
X843760D02*
D03*
X828760D02*
D03*
X813760D02*
D03*
X798760D02*
D03*
X783760D02*
D03*
X768760D02*
D03*
X753760D02*
D03*
X843760Y1177660D02*
D03*
X828760D02*
D03*
X873760D02*
D03*
X858760D02*
D03*
X813760D02*
D03*
X798760D02*
D03*
X783760D02*
D03*
X768760D02*
D03*
X753760D02*
D03*
X432940Y757000D02*
D03*
X415430D02*
D03*
X533530Y781070D02*
D03*
X548770D02*
D03*
X574200Y990020D02*
D03*
X560200D02*
D03*
X627470Y975020D02*
D03*
X712740Y756000D02*
D03*
X681650Y1086880D02*
D03*
X190240Y272270D02*
D03*
X243320D02*
D03*
Y292270D02*
D03*
X758760Y581210D02*
D03*
Y595210D02*
D03*
X697740Y518460D02*
D03*
X712740Y533460D02*
D03*
X2093441Y828540D02*
D03*
X1991841D02*
D03*
X2132321Y828730D02*
D03*
X1594801Y828540D02*
D03*
X1493201D02*
D03*
X2592081D02*
D03*
X1096161D02*
D03*
X2490481D02*
D03*
X994561D02*
D03*
X1135041Y828730D02*
D03*
X1633681D02*
D03*
X712740Y815723D02*
D03*
X260780Y400020D02*
D03*
Y470020D02*
D03*
Y435020D02*
D03*
Y450020D02*
D03*
Y420020D02*
D03*
Y371360D02*
D03*
X228000Y402610D02*
D03*
Y434110D02*
D03*
X594830Y490020D02*
D03*
Y505020D02*
D03*
X332830Y672520D02*
D03*
X317830D02*
D03*
X347830Y628520D02*
D03*
X401330Y573520D02*
D03*
X416330D02*
D03*
X451330Y543520D02*
D03*
X210640Y704550D02*
D03*
X507100Y846190D02*
D03*
X574200Y810070D02*
D03*
X503290Y1031150D02*
D03*
X579010D02*
D03*
X647630Y975020D02*
D03*
X593120Y730950D02*
D03*
X302750Y168150D02*
D03*
X258500Y81000D02*
D03*
X302350Y60000D02*
D03*
X353550Y39900D02*
D03*
X30000Y688550D02*
D03*
X179550Y775700D02*
D03*
X260780Y326870D02*
D03*
X284830Y334990D02*
D03*
X2082640Y768240D02*
D03*
X923760Y581660D02*
D03*
Y596660D02*
D03*
X1180361Y754790D02*
D03*
X1015361Y753340D02*
D03*
Y768340D02*
D03*
X918761Y690000D02*
D03*
X1080361Y687180D02*
D03*
X813760Y1046240D02*
D03*
X1020361Y690000D02*
D03*
X948761D02*
D03*
X978761D02*
D03*
X913761Y753340D02*
D03*
Y768340D02*
D03*
X1085361Y768240D02*
D03*
Y782240D02*
D03*
X983761D02*
D03*
Y768240D02*
D03*
X1126360Y739790D02*
D03*
X1111361Y767790D02*
D03*
X1180361Y768790D02*
D03*
X1050361Y690000D02*
D03*
X1514001Y753340D02*
D03*
Y768340D02*
D03*
X1417401Y690000D02*
D03*
X1579001Y687180D02*
D03*
X1312400Y1046240D02*
D03*
X1519001Y690000D02*
D03*
X1447401D02*
D03*
X1477401D02*
D03*
X1412401Y753340D02*
D03*
Y768340D02*
D03*
X1584001Y768240D02*
D03*
Y782240D02*
D03*
X1482401D02*
D03*
Y768240D02*
D03*
X1625000Y739790D02*
D03*
X1610001Y767790D02*
D03*
X1679001Y754790D02*
D03*
Y768790D02*
D03*
X1549001Y690000D02*
D03*
X1916041Y690000D02*
D03*
X1811040Y1046240D02*
D03*
X2077641Y687180D02*
D03*
X1976041Y690000D02*
D03*
X1911041Y753340D02*
D03*
Y768340D02*
D03*
X1946041Y690000D02*
D03*
X2047641D02*
D03*
X2012641Y753340D02*
D03*
Y768340D02*
D03*
X2017641Y690000D02*
D03*
X2082641Y782240D02*
D03*
X1981041D02*
D03*
Y768240D02*
D03*
X2123640Y739790D02*
D03*
X2108641Y767790D02*
D03*
X2177641Y754790D02*
D03*
Y768790D02*
D03*
X2479680Y768240D02*
D03*
X2630961Y828540D02*
D03*
X2676281Y754790D02*
D03*
Y768790D02*
D03*
X2576281Y687180D02*
D03*
X2516281Y690000D02*
D03*
X2546281D02*
D03*
X2511281Y753340D02*
D03*
Y768340D02*
D03*
X2414680Y690000D02*
D03*
X2409680Y753340D02*
D03*
Y768340D02*
D03*
X2474680Y690000D02*
D03*
X2444680D02*
D03*
X2479680Y782240D02*
D03*
X2581281Y768240D02*
D03*
Y782240D02*
D03*
X2622280Y739790D02*
D03*
X2607281Y767790D02*
D03*
X2309680Y1046240D02*
D03*
X2419680Y581660D02*
D03*
Y596660D02*
D03*
X2521279Y581660D02*
D03*
Y596660D02*
D03*
X2486279Y660000D02*
D03*
X2516279D02*
D03*
X2440479Y521460D02*
D03*
X2456279Y660000D02*
D03*
X2354680Y662820D02*
D03*
X2414680Y660000D02*
D03*
X2384680D02*
D03*
X2299999Y521460D02*
D03*
X2338879D02*
D03*
X2349680Y567760D02*
D03*
Y581760D02*
D03*
X2621280Y303760D02*
D03*
X2451279Y581760D02*
D03*
Y567760D02*
D03*
X2308680Y610210D02*
D03*
X2323680Y582210D02*
D03*
X2254680Y581210D02*
D03*
Y595210D02*
D03*
X1921040Y581660D02*
D03*
Y596660D02*
D03*
X2022640Y581660D02*
D03*
Y596660D02*
D03*
X1987640Y660000D02*
D03*
X2017640D02*
D03*
X1941839Y521460D02*
D03*
X1957640Y660000D02*
D03*
X1856040Y662820D02*
D03*
X1916040Y660000D02*
D03*
X1886040D02*
D03*
X1801360Y521460D02*
D03*
X1840240D02*
D03*
X1851040Y567760D02*
D03*
Y581760D02*
D03*
X2122640Y303760D02*
D03*
X1952640Y581760D02*
D03*
Y567760D02*
D03*
X1825040Y582210D02*
D03*
X1756040Y581210D02*
D03*
Y595210D02*
D03*
X1257400D02*
D03*
Y581210D02*
D03*
X1311400Y610210D02*
D03*
X1443199Y521460D02*
D03*
X1624000Y303760D02*
D03*
X1523999Y581660D02*
D03*
Y596660D02*
D03*
X1302719Y521460D02*
D03*
X1341599D02*
D03*
X1453999Y581760D02*
D03*
Y567760D02*
D03*
X1352399Y581760D02*
D03*
Y567760D02*
D03*
X1422399Y596660D02*
D03*
Y581660D02*
D03*
X1417399Y660000D02*
D03*
X1387399D02*
D03*
X1326399Y582210D02*
D03*
X1488999Y660000D02*
D03*
X1518999D02*
D03*
X1458999D02*
D03*
X1357399Y662820D02*
D03*
X955360Y567760D02*
D03*
X853760D02*
D03*
X804080Y521460D02*
D03*
X842960D02*
D03*
X827760Y582210D02*
D03*
X853760Y581760D02*
D03*
X955360D02*
D03*
X944560Y521460D02*
D03*
X918760Y660000D02*
D03*
X888760D02*
D03*
X858760Y662820D02*
D03*
X990360Y660000D02*
D03*
X960360D02*
D03*
X1125360Y303760D02*
D03*
X1020360Y660000D02*
D03*
X1025360Y581660D02*
D03*
Y596660D02*
D03*
X539830Y455020D02*
D03*
Y440020D02*
D03*
X492140Y490020D02*
D03*
X559560Y757000D02*
D03*
Y743000D02*
D03*
X636150Y825070D02*
D03*
X727740Y548460D02*
D03*
X843760Y1148740D02*
D03*
X858760D02*
D03*
X753760D02*
D03*
X768760D02*
D03*
X783760D02*
D03*
X798760D02*
D03*
X813760D02*
D03*
X828760D02*
D03*
X697740Y622500D02*
D03*
X228000Y371360D02*
D03*
X631330Y1086880D02*
D03*
X875180Y1147660D02*
D03*
X727740Y822730D02*
D03*
X697740Y697500D02*
D03*
Y727500D02*
D03*
Y712500D02*
D03*
Y682500D02*
D03*
X727740Y807730D02*
D03*
X712740Y800230D02*
D03*
X697740Y652500D02*
D03*
X594830Y530020D02*
D03*
Y545020D02*
D03*
X1836040Y120000D02*
D03*
X838760Y60000D02*
D03*
X1100360Y1290000D02*
D03*
X2097640Y1230000D02*
D03*
X507100Y953890D02*
D03*
X560200Y810070D02*
D03*
X214070Y516100D02*
D03*
X213500Y473110D02*
D03*
Y457360D02*
D03*
X317830Y628520D02*
D03*
X367830Y430020D02*
D03*
X377830Y440020D02*
D03*
X317830Y613520D02*
D03*
X244390Y371360D02*
D03*
X50930Y778550D02*
D03*
X332830Y628520D02*
D03*
X378550Y147885D02*
D03*
X426460Y162100D02*
D03*
Y147880D02*
D03*
Y133670D02*
D03*
X179550Y795700D02*
D03*
Y815700D02*
D03*
Y835700D02*
D03*
Y855700D02*
D03*
X209700Y895700D02*
D03*
Y945700D02*
D03*
X30000Y778550D02*
D03*
Y703550D02*
D03*
Y718550D02*
D03*
Y733550D02*
D03*
Y748550D02*
D03*
Y763550D02*
D03*
X331830Y334990D02*
D03*
X451330Y336520D02*
D03*
X466330D02*
D03*
X366330D02*
D03*
X560780Y311520D02*
D03*
X614780Y351520D02*
D03*
X539830Y480020D02*
D03*
X697740Y637500D02*
D03*
Y667500D02*
D03*
X524830Y495020D02*
D03*
X466330Y628520D02*
D03*
X481330D02*
D03*
X401330Y643520D02*
D03*
X416330Y628520D02*
D03*
X401330D02*
D03*
X416330Y643520D02*
D03*
X302830Y555020D02*
D03*
Y540020D02*
D03*
Y500020D02*
D03*
Y485020D02*
D03*
X496330Y321520D02*
D03*
X477140Y475020D02*
D03*
X462140Y460020D02*
D03*
X527700Y61500D02*
D03*
X551330Y241280D02*
D03*
X566330D02*
D03*
X468260Y125300D02*
D03*
X50930Y861360D02*
D03*
X179550Y728550D02*
D03*
X162500Y457360D02*
D03*
X16750Y473110D02*
D03*
X468260Y80300D02*
D03*
Y110300D02*
D03*
X536330Y336520D02*
D03*
X388830D02*
D03*
X411330D02*
D03*
M02*
