G04*
G04 #@! TF.GenerationSoftware,Altium Limited,Altium Designer,24.3.1 (35)*
G04*
G04 Layer_Color=8421504*
%FSLAX44Y44*%
%MOMM*%
G71*
G04*
G04 #@! TF.SameCoordinates,92BC9782-8992-42D9-9517-A00A7AE7D45C*
G04*
G04*
G04 #@! TF.FilePolarity,Positive*
G04*
G01*
G75*
%ADD11C,0.2000*%
%ADD22R,0.5000X0.5000*%
%ADD23R,1.5850X1.5700*%
%ADD24R,1.2350X1.5700*%
%ADD25R,1.5700X1.5850*%
%ADD26R,1.5700X1.2350*%
%ADD27R,1.4500X0.9500*%
%ADD28R,1.3000X1.1500*%
%ADD29R,0.6480X0.5080*%
%ADD30R,1.6000X3.2000*%
G04:AMPARAMS|DCode=31|XSize=1.1mm|YSize=0.6mm|CornerRadius=0.051mm|HoleSize=0mm|Usage=FLASHONLY|Rotation=270.000|XOffset=0mm|YOffset=0mm|HoleType=Round|Shape=RoundedRectangle|*
%AMROUNDEDRECTD31*
21,1,1.1000,0.4980,0,0,270.0*
21,1,0.9980,0.6000,0,0,270.0*
1,1,0.1020,-0.2490,-0.4990*
1,1,0.1020,-0.2490,0.4990*
1,1,0.1020,0.2490,0.4990*
1,1,0.1020,0.2490,-0.4990*
%
%ADD31ROUNDEDRECTD31*%
%ADD32R,1.9000X4.1500*%
%ADD33R,0.9500X1.3500*%
%ADD34R,1.3500X0.9500*%
%ADD35R,0.6000X0.5000*%
%ADD36R,1.4500X1.0500*%
%ADD37R,1.3000X1.4500*%
%ADD38R,0.6811X0.5725*%
%ADD39R,0.2548X0.8080*%
%ADD40R,1.4478X1.7526*%
%ADD41R,0.6900X0.9900*%
%ADD42R,0.6500X0.9000*%
%ADD43R,0.9000X0.7500*%
%ADD44O,0.2000X0.7500*%
%ADD45O,0.7500X0.2000*%
%ADD46R,3.1300X3.1300*%
%ADD47R,0.5000X0.4750*%
%ADD48R,0.4725X0.5596*%
%ADD49R,0.5596X0.4725*%
%ADD50R,1.0000X1.0500*%
%ADD51R,1.5000X1.5500*%
%ADD52R,0.4000X1.3500*%
%ADD53R,1.0500X1.0000*%
%ADD54R,0.9000X0.7000*%
%ADD55R,1.7000X1.1000*%
%ADD56R,1.0000X0.7500*%
%ADD57R,0.7000X0.9000*%
%ADD58R,2.7900X0.7400*%
%ADD59R,0.8000X0.9500*%
%ADD60R,0.7110X0.8130*%
%ADD61R,0.7000X0.7000*%
%ADD62O,1.6500X0.3000*%
%ADD63O,0.3000X1.6500*%
%ADD64R,0.6500X0.7000*%
%ADD65R,0.6300X0.8300*%
G04:AMPARAMS|DCode=66|XSize=0.6mm|YSize=1.45mm|CornerRadius=0.051mm|HoleSize=0mm|Usage=FLASHONLY|Rotation=90.000|XOffset=0mm|YOffset=0mm|HoleType=Round|Shape=RoundedRectangle|*
%AMROUNDEDRECTD66*
21,1,0.6000,1.3480,0,0,90.0*
21,1,0.4980,1.4500,0,0,90.0*
1,1,0.1020,0.6740,0.2490*
1,1,0.1020,0.6740,-0.2490*
1,1,0.1020,-0.6740,-0.2490*
1,1,0.1020,-0.6740,0.2490*
%
%ADD66ROUNDEDRECTD66*%
%ADD67R,1.4500X1.3000*%
%ADD68R,0.7000X0.7000*%
%ADD69R,0.2540X0.6350*%
%ADD70R,0.4064X0.2286*%
%ADD71R,0.3556X0.2286*%
%ADD72R,0.4750X0.5000*%
%ADD73R,1.2192X0.9144*%
%ADD74R,1.9800X0.5300*%
%ADD75R,0.5588X1.7018*%
%ADD76R,0.8636X2.6162*%
%ADD77R,0.6000X0.5500*%
%ADD78R,0.5500X0.5500*%
%ADD79R,1.7121X1.0581*%
%ADD80R,1.1000X1.2500*%
%ADD81R,0.6000X0.6000*%
%ADD82R,2.0000X3.0000*%
%ADD83R,1.9900X2.3300*%
%ADD84R,1.2000X1.8000*%
%ADD85R,0.6000X1.2500*%
%ADD86R,1.5000X1.9000*%
%ADD87R,1.1000X2.2000*%
%ADD88R,2.5000X2.5000*%
%ADD89R,17.5000X12.5000*%
%ADD90R,12.5000X17.5000*%
%ADD91R,2.5000X2.5000*%
%ADD92R,2.2860X1.2700*%
%ADD93R,2.7000X1.2500*%
%ADD94R,0.8130X0.7110*%
%ADD95R,1.0160X1.5240*%
%ADD96R,1.1000X1.6500*%
%ADD97R,0.4000X0.5000*%
%ADD98R,0.5500X0.5500*%
%ADD99R,5.0038X3.0988*%
G04:AMPARAMS|DCode=100|XSize=5.35mm|YSize=8.54mm|CornerRadius=0.0535mm|HoleSize=0mm|Usage=FLASHONLY|Rotation=180.000|XOffset=0mm|YOffset=0mm|HoleType=Round|Shape=RoundedRectangle|*
%AMROUNDEDRECTD100*
21,1,5.3500,8.4330,0,0,180.0*
21,1,5.2430,8.5400,0,0,180.0*
1,1,0.1070,-2.6215,4.2165*
1,1,0.1070,2.6215,4.2165*
1,1,0.1070,2.6215,-4.2165*
1,1,0.1070,-2.6215,-4.2165*
%
%ADD100ROUNDEDRECTD100*%
G04:AMPARAMS|DCode=101|XSize=0.89mm|YSize=2.41mm|CornerRadius=0.049mm|HoleSize=0mm|Usage=FLASHONLY|Rotation=180.000|XOffset=0mm|YOffset=0mm|HoleType=Round|Shape=RoundedRectangle|*
%AMROUNDEDRECTD101*
21,1,0.8900,2.3121,0,0,180.0*
21,1,0.7921,2.4100,0,0,180.0*
1,1,0.0979,-0.3961,1.1561*
1,1,0.0979,0.3961,1.1561*
1,1,0.0979,0.3961,-1.1561*
1,1,0.0979,-0.3961,-1.1561*
%
%ADD101ROUNDEDRECTD101*%
%ADD102R,2.0800X0.8900*%
%ADD103R,1.5200X2.3250*%
%ADD104R,0.7000X1.5000*%
%ADD105R,1.0000X0.8000*%
%ADD106R,0.9500X0.8000*%
%ADD107R,1.2000X1.1000*%
%ADD108R,0.5000X0.4000*%
%ADD109R,1.1000X1.3500*%
%ADD110R,0.7000X0.6500*%
%ADD111R,1.2000X1.5500*%
%ADD112R,1.2000X1.5500*%
G36*
X120951Y718621D02*
Y724818D01*
X112359D01*
Y722532D01*
X116887D01*
Y718621D01*
X120951D01*
D02*
G37*
G36*
X112359Y752282D02*
X120197D01*
Y758225D01*
X116641D01*
Y754568D01*
X112359D01*
Y752282D01*
D02*
G37*
G36*
X149387Y718621D02*
Y724818D01*
X157979D01*
Y722532D01*
X153451D01*
Y718621D01*
X149387D01*
D02*
G37*
G36*
X157979Y752282D02*
X150141D01*
Y758225D01*
X153697D01*
Y754568D01*
X157979D01*
Y752282D01*
D02*
G37*
D11*
X0Y0D02*
Y1500000D01*
X3000000D01*
Y0D02*
Y1500000D01*
X0Y0D02*
X3000000D01*
D22*
X199250Y541501D02*
D03*
Y528801D02*
D03*
Y516101D02*
D03*
Y503401D02*
D03*
X143850Y541501D02*
D03*
Y528801D02*
D03*
Y516101D02*
D03*
Y503401D02*
D03*
X33149Y503577D02*
D03*
X45849D02*
D03*
X58549D02*
D03*
X71249D02*
D03*
X33149Y448177D02*
D03*
X45849D02*
D03*
X58549D02*
D03*
X71249D02*
D03*
D23*
X160424Y533400D02*
D03*
Y511500D02*
D03*
D24*
X179525Y533400D02*
D03*
Y511500D02*
D03*
D25*
X41250Y464755D02*
D03*
X63150D02*
D03*
D26*
X41249Y483856D02*
D03*
X63149D02*
D03*
D27*
X378550Y98870D02*
D03*
Y118370D02*
D03*
D28*
Y56790D02*
D03*
Y79290D02*
D03*
D29*
X202500Y109250D02*
D03*
Y128250D02*
D03*
X224980Y118750D02*
D03*
D30*
X226380Y193150D02*
D03*
Y243150D02*
D03*
D31*
X1145360Y780790D02*
D03*
X1135860D02*
D03*
X1126360D02*
D03*
Y754790D02*
D03*
X1145360D02*
D03*
X1644000Y780790D02*
D03*
X1634500D02*
D03*
X1625000D02*
D03*
Y754790D02*
D03*
X1644000D02*
D03*
X2142640Y780790D02*
D03*
X2133140D02*
D03*
X2123640D02*
D03*
Y754790D02*
D03*
X2142640D02*
D03*
X2641280Y780790D02*
D03*
X2631780D02*
D03*
X2622280D02*
D03*
Y754790D02*
D03*
X2641280D02*
D03*
X2289680Y569210D02*
D03*
X2299180D02*
D03*
X2308680D02*
D03*
Y595210D02*
D03*
X2289680D02*
D03*
X1791040Y569210D02*
D03*
X1800540D02*
D03*
X1810040D02*
D03*
Y595210D02*
D03*
X1791040D02*
D03*
X1292400Y569210D02*
D03*
X1301900D02*
D03*
X1311400D02*
D03*
Y595210D02*
D03*
X1292400D02*
D03*
X793760Y569210D02*
D03*
X803260D02*
D03*
X812760D02*
D03*
Y595210D02*
D03*
X793760D02*
D03*
D32*
X412940Y193150D02*
D03*
Y262650D02*
D03*
D33*
X651650Y1086880D02*
D03*
X666650D02*
D03*
D34*
X627470Y992780D02*
D03*
Y1007780D02*
D03*
D35*
X415430Y796050D02*
D03*
Y781050D02*
D03*
D36*
X353550Y118370D02*
D03*
Y99870D02*
D03*
X277350Y118750D02*
D03*
Y100250D02*
D03*
X30000Y907200D02*
D03*
Y925700D02*
D03*
D37*
X302830Y400020D02*
D03*
X286830D02*
D03*
D38*
X54065Y763550D02*
D03*
X45755D02*
D03*
D39*
X1045361Y753336D02*
D03*
X1050361D02*
D03*
X1055361D02*
D03*
Y782244D02*
D03*
X1050361D02*
D03*
X1045361D02*
D03*
X1544001Y753336D02*
D03*
X1549001D02*
D03*
X1554001D02*
D03*
Y782244D02*
D03*
X1549001D02*
D03*
X1544001D02*
D03*
X2042641Y753336D02*
D03*
X2047641D02*
D03*
X2052641D02*
D03*
Y782244D02*
D03*
X2047641D02*
D03*
X2042641D02*
D03*
X2541281Y753336D02*
D03*
X2546281D02*
D03*
X2551281D02*
D03*
Y782244D02*
D03*
X2546281D02*
D03*
X2541281D02*
D03*
X2389679Y596664D02*
D03*
X2384680D02*
D03*
X2379680D02*
D03*
Y567756D02*
D03*
X2384680D02*
D03*
X2389679D02*
D03*
X1891040Y596664D02*
D03*
X1886040D02*
D03*
X1881040D02*
D03*
Y567756D02*
D03*
X1886040D02*
D03*
X1891040D02*
D03*
X1392399Y596664D02*
D03*
X1387399D02*
D03*
X1382399D02*
D03*
Y567756D02*
D03*
X1387399D02*
D03*
X1392399D02*
D03*
X893760Y596664D02*
D03*
X888760D02*
D03*
X883760D02*
D03*
Y567756D02*
D03*
X888760D02*
D03*
X893760D02*
D03*
X943761Y753336D02*
D03*
X948761D02*
D03*
X953761D02*
D03*
Y782244D02*
D03*
X948761D02*
D03*
X943761D02*
D03*
X1442401Y753336D02*
D03*
X1447401D02*
D03*
X1452401D02*
D03*
Y782244D02*
D03*
X1447401D02*
D03*
X1442401D02*
D03*
X1941041Y753336D02*
D03*
X1946041D02*
D03*
X1951041D02*
D03*
Y782244D02*
D03*
X1946041D02*
D03*
X1941041D02*
D03*
X2439680Y753336D02*
D03*
X2444680D02*
D03*
X2449680D02*
D03*
Y782244D02*
D03*
X2444680D02*
D03*
X2439680D02*
D03*
X2491279Y596664D02*
D03*
X2486279D02*
D03*
X2481279D02*
D03*
Y567756D02*
D03*
X2486279D02*
D03*
X2491279D02*
D03*
X1992640Y596664D02*
D03*
X1987640D02*
D03*
X1982640D02*
D03*
Y567756D02*
D03*
X1987640D02*
D03*
X1992640D02*
D03*
X1493999Y596664D02*
D03*
X1488999D02*
D03*
X1483999D02*
D03*
Y567756D02*
D03*
X1488999D02*
D03*
X1493999D02*
D03*
X995360Y596664D02*
D03*
X990360D02*
D03*
X985360D02*
D03*
Y567756D02*
D03*
X990360D02*
D03*
X995360D02*
D03*
D40*
X1050361Y767790D02*
D03*
X1549001Y767790D02*
D03*
X2047641Y767790D02*
D03*
X2546281D02*
D03*
X2384680Y582210D02*
D03*
X1886040D02*
D03*
X1387399D02*
D03*
X888760D02*
D03*
X948761Y767790D02*
D03*
X1447401Y767790D02*
D03*
X1946041Y767790D02*
D03*
X2444680D02*
D03*
X2486279Y582210D02*
D03*
X1987640D02*
D03*
X1488999D02*
D03*
X990360D02*
D03*
D41*
X509200Y107400D02*
D03*
X528200D02*
D03*
Y81500D02*
D03*
X518700D02*
D03*
X509200D02*
D03*
D42*
X648700Y348565D02*
D03*
X667700D02*
D03*
Y324565D02*
D03*
X658200D02*
D03*
X648700D02*
D03*
D43*
X496330Y229280D02*
D03*
Y217280D02*
D03*
X546200Y95400D02*
D03*
Y107400D02*
D03*
X686650Y744000D02*
D03*
Y756000D02*
D03*
D44*
X535080Y192280D02*
D03*
X530080D02*
D03*
X525080D02*
D03*
X520080D02*
D03*
X515080D02*
D03*
X510080D02*
D03*
X505080D02*
D03*
Y144780D02*
D03*
X510080D02*
D03*
X515080D02*
D03*
X520080D02*
D03*
X525080D02*
D03*
X530080D02*
D03*
X535080D02*
D03*
D45*
X496330Y183530D02*
D03*
Y178530D02*
D03*
Y173530D02*
D03*
Y168530D02*
D03*
Y163530D02*
D03*
Y158530D02*
D03*
Y153530D02*
D03*
X543830D02*
D03*
Y158530D02*
D03*
Y163530D02*
D03*
Y168530D02*
D03*
Y173530D02*
D03*
Y178530D02*
D03*
Y183530D02*
D03*
D46*
X520080Y168530D02*
D03*
D47*
X50930Y925705D02*
D03*
Y915455D02*
D03*
D48*
Y793548D02*
D03*
Y801072D02*
D03*
D49*
X220933Y292270D02*
D03*
X213407D02*
D03*
D50*
X564010Y1016150D02*
D03*
Y1031150D02*
D03*
X908760Y596660D02*
D03*
Y581660D02*
D03*
X1906040Y596660D02*
D03*
Y581660D02*
D03*
X2007639Y596660D02*
D03*
Y581660D02*
D03*
X1427401Y753339D02*
D03*
Y768339D02*
D03*
X1529001Y753339D02*
D03*
Y768339D02*
D03*
X1010360Y581660D02*
D03*
Y596660D02*
D03*
X928761Y753339D02*
D03*
Y768340D02*
D03*
X1030361Y753339D02*
D03*
Y768340D02*
D03*
X518290Y1016150D02*
D03*
Y1031150D02*
D03*
X2404680Y596660D02*
D03*
Y581660D02*
D03*
X2506279D02*
D03*
Y596660D02*
D03*
X1407400D02*
D03*
Y581660D02*
D03*
X1508999Y596660D02*
D03*
Y581660D02*
D03*
X2526280Y768340D02*
D03*
Y753339D02*
D03*
X2424681Y768340D02*
D03*
Y753339D02*
D03*
X1926041Y768340D02*
D03*
Y753339D02*
D03*
X579830Y560020D02*
D03*
Y575020D02*
D03*
X2027641Y768340D02*
D03*
Y753339D02*
D03*
X579830Y505020D02*
D03*
Y490020D02*
D03*
X317830Y500020D02*
D03*
Y485020D02*
D03*
X317830Y555020D02*
D03*
Y540020D02*
D03*
D51*
X556200Y14500D02*
D03*
X536200D02*
D03*
D52*
X559200Y41500D02*
D03*
X552700D02*
D03*
X546200D02*
D03*
X539700D02*
D03*
X533200D02*
D03*
D53*
X650700Y361565D02*
D03*
X665700D02*
D03*
X302830Y420020D02*
D03*
X287830D02*
D03*
X287830Y435020D02*
D03*
X302830D02*
D03*
X287830Y450020D02*
D03*
X302830D02*
D03*
X287830Y371360D02*
D03*
X302830D02*
D03*
X331830Y351520D02*
D03*
X346830D02*
D03*
X195000Y473110D02*
D03*
X180000D02*
D03*
X396330Y351520D02*
D03*
X411330D02*
D03*
X536330Y351520D02*
D03*
X521330D02*
D03*
X401330Y613520D02*
D03*
X416330D02*
D03*
X144500Y775700D02*
D03*
X129500D02*
D03*
X180000Y457360D02*
D03*
X195000D02*
D03*
X466330Y613520D02*
D03*
X481330D02*
D03*
X451330Y351520D02*
D03*
X466330D02*
D03*
X381330Y351520D02*
D03*
X366330D02*
D03*
D54*
X667700Y298065D02*
D03*
Y312065D02*
D03*
X648700Y298065D02*
D03*
Y312065D02*
D03*
X566330Y231280D02*
D03*
Y217280D02*
D03*
X551330Y231280D02*
D03*
Y217280D02*
D03*
X547500Y825070D02*
D03*
Y811070D02*
D03*
X317830Y657520D02*
D03*
Y643520D02*
D03*
X332830D02*
D03*
Y657520D02*
D03*
X534800Y811070D02*
D03*
Y825070D02*
D03*
X548770Y1016150D02*
D03*
Y1030150D02*
D03*
X533530Y1016150D02*
D03*
Y1030150D02*
D03*
X199000Y567950D02*
D03*
Y581950D02*
D03*
X551330Y252520D02*
D03*
Y266520D02*
D03*
X566330Y252520D02*
D03*
Y266520D02*
D03*
X16750Y489400D02*
D03*
Y503400D02*
D03*
X1070360Y768240D02*
D03*
Y782240D02*
D03*
X1569000Y768240D02*
D03*
Y782240D02*
D03*
X2067640Y768240D02*
D03*
Y782240D02*
D03*
X2566280Y768240D02*
D03*
Y782240D02*
D03*
X2364680Y581760D02*
D03*
Y567760D02*
D03*
X1866040Y581760D02*
D03*
Y567760D02*
D03*
X1367400Y581760D02*
D03*
Y567760D02*
D03*
X868760Y581760D02*
D03*
Y567760D02*
D03*
X968760Y782240D02*
D03*
Y768240D02*
D03*
X1467400Y782240D02*
D03*
Y768240D02*
D03*
X1966040Y782240D02*
D03*
Y768240D02*
D03*
X2464680Y782240D02*
D03*
Y768240D02*
D03*
X2466280Y567760D02*
D03*
Y581760D02*
D03*
X1967640Y567760D02*
D03*
Y581760D02*
D03*
X1469000Y567760D02*
D03*
Y581760D02*
D03*
X970360Y567760D02*
D03*
Y581760D02*
D03*
X496330Y336520D02*
D03*
Y350520D02*
D03*
X210640Y733550D02*
D03*
Y719550D02*
D03*
X536330Y231280D02*
D03*
Y217280D02*
D03*
D55*
X516330Y217280D02*
D03*
Y243280D02*
D03*
X566820Y107400D02*
D03*
Y81400D02*
D03*
D56*
X566820Y122400D02*
D03*
Y137400D02*
D03*
X575780Y391520D02*
D03*
Y376520D02*
D03*
D57*
X455010Y110300D02*
D03*
X441010D02*
D03*
Y95300D02*
D03*
X455010D02*
D03*
D58*
X468260Y65300D02*
D03*
Y52600D02*
D03*
Y39900D02*
D03*
Y27200D02*
D03*
Y14500D02*
D03*
X427560D02*
D03*
Y27200D02*
D03*
Y39900D02*
D03*
Y52600D02*
D03*
Y65300D02*
D03*
D59*
X441010Y80300D02*
D03*
X453510D02*
D03*
Y125300D02*
D03*
X441010D02*
D03*
X245500Y60000D02*
D03*
X258500D02*
D03*
X202500Y60000D02*
D03*
X215500D02*
D03*
D60*
X574440Y61500D02*
D03*
X559200D02*
D03*
X533530Y796070D02*
D03*
X548770D02*
D03*
X548770Y975020D02*
D03*
X533530D02*
D03*
X533530Y1124700D02*
D03*
X548770D02*
D03*
D61*
X1165361Y754790D02*
D03*
Y768790D02*
D03*
X2661281D02*
D03*
Y754790D02*
D03*
X2162641Y768790D02*
D03*
Y754790D02*
D03*
X1771039Y595210D02*
D03*
Y581210D02*
D03*
X1272399Y595210D02*
D03*
Y581210D02*
D03*
X1664001Y754790D02*
D03*
Y768790D02*
D03*
X773760Y581210D02*
D03*
Y595210D02*
D03*
X585650Y743000D02*
D03*
Y757000D02*
D03*
X2269679Y581210D02*
D03*
Y595210D02*
D03*
X647630Y1007780D02*
D03*
Y993780D02*
D03*
D62*
X342834Y425020D02*
D03*
Y420020D02*
D03*
Y440020D02*
D03*
Y430020D02*
D03*
Y435020D02*
D03*
Y400020D02*
D03*
Y395020D02*
D03*
Y415020D02*
D03*
Y405020D02*
D03*
Y410020D02*
D03*
Y460020D02*
D03*
Y475020D02*
D03*
Y465020D02*
D03*
Y470020D02*
D03*
Y455020D02*
D03*
Y445020D02*
D03*
Y450020D02*
D03*
Y510020D02*
D03*
Y505020D02*
D03*
Y525020D02*
D03*
Y515020D02*
D03*
Y520020D02*
D03*
Y485020D02*
D03*
Y480020D02*
D03*
Y500020D02*
D03*
Y490020D02*
D03*
Y495020D02*
D03*
Y555020D02*
D03*
Y550020D02*
D03*
Y570020D02*
D03*
Y560020D02*
D03*
Y565020D02*
D03*
Y535020D02*
D03*
Y530020D02*
D03*
Y540020D02*
D03*
Y545020D02*
D03*
X554834Y425020D02*
D03*
Y420020D02*
D03*
Y440020D02*
D03*
Y430020D02*
D03*
Y435020D02*
D03*
Y400020D02*
D03*
Y395020D02*
D03*
Y415020D02*
D03*
Y405020D02*
D03*
Y410020D02*
D03*
Y460020D02*
D03*
Y475020D02*
D03*
Y465020D02*
D03*
Y470020D02*
D03*
Y455020D02*
D03*
Y445020D02*
D03*
Y450020D02*
D03*
Y510020D02*
D03*
Y505020D02*
D03*
Y525020D02*
D03*
Y515020D02*
D03*
Y520020D02*
D03*
Y485020D02*
D03*
Y480020D02*
D03*
Y500020D02*
D03*
Y490020D02*
D03*
Y495020D02*
D03*
Y565020D02*
D03*
Y560020D02*
D03*
Y570020D02*
D03*
Y540020D02*
D03*
Y530020D02*
D03*
Y535020D02*
D03*
Y555020D02*
D03*
Y545020D02*
D03*
Y550020D02*
D03*
D63*
X411334Y376520D02*
D03*
X401334D02*
D03*
X406334D02*
D03*
X431334D02*
D03*
X436334D02*
D03*
X416334D02*
D03*
X426334D02*
D03*
X421334D02*
D03*
X366334D02*
D03*
X371334D02*
D03*
X361334D02*
D03*
X391334D02*
D03*
X396334D02*
D03*
X376334D02*
D03*
X386334D02*
D03*
X381334D02*
D03*
X411334Y588520D02*
D03*
X431334D02*
D03*
X436334D02*
D03*
X416334D02*
D03*
X426334D02*
D03*
X421334D02*
D03*
X371334D02*
D03*
X376334D02*
D03*
X361334D02*
D03*
X366334D02*
D03*
X396334D02*
D03*
X406334D02*
D03*
X401334D02*
D03*
X381334D02*
D03*
X391334D02*
D03*
X386334D02*
D03*
X506334Y376520D02*
D03*
X511334D02*
D03*
X491334D02*
D03*
X501334D02*
D03*
X496334D02*
D03*
X531334D02*
D03*
X536334D02*
D03*
X516334D02*
D03*
X526334D02*
D03*
X521334D02*
D03*
X456334D02*
D03*
X461334D02*
D03*
X441334D02*
D03*
X451334D02*
D03*
X446334D02*
D03*
X481334D02*
D03*
X486334D02*
D03*
X466334D02*
D03*
X476334D02*
D03*
X471334D02*
D03*
X491334Y588520D02*
D03*
X501334D02*
D03*
X496334D02*
D03*
X521334D02*
D03*
X526334D02*
D03*
X506334D02*
D03*
X516334D02*
D03*
X511334D02*
D03*
X456334D02*
D03*
X461334D02*
D03*
X441334D02*
D03*
X451334D02*
D03*
X446334D02*
D03*
X481334D02*
D03*
X486334D02*
D03*
X466334D02*
D03*
X476334D02*
D03*
X471334D02*
D03*
X531334D02*
D03*
X536334D02*
D03*
D64*
X138050Y673250D02*
D03*
X151550D02*
D03*
D65*
X206020Y272270D02*
D03*
X228320D02*
D03*
D66*
X666650Y1030150D02*
D03*
Y1042850D02*
D03*
Y1055550D02*
D03*
Y1068250D02*
D03*
X612150Y1030150D02*
D03*
Y1042850D02*
D03*
Y1055550D02*
D03*
Y1068250D02*
D03*
D67*
X432940Y780050D02*
D03*
Y796050D02*
D03*
D68*
X574200Y825070D02*
D03*
X560200D02*
D03*
X302830Y470020D02*
D03*
X288830D02*
D03*
X560200Y975020D02*
D03*
X574200D02*
D03*
X57250Y688550D02*
D03*
X43250D02*
D03*
X1641501Y800040D02*
D03*
X1627500D02*
D03*
X796261Y549960D02*
D03*
X810261D02*
D03*
X1142860Y800040D02*
D03*
X1128860D02*
D03*
X2292180Y549960D02*
D03*
X2306180D02*
D03*
X1294899D02*
D03*
X1308900D02*
D03*
X2624780Y800040D02*
D03*
X2638780D02*
D03*
X2126140D02*
D03*
X2140141D02*
D03*
X1807540Y549960D02*
D03*
X1793540D02*
D03*
D69*
X141800Y755050D02*
D03*
X124300Y754925D02*
D03*
X146800Y755050D02*
D03*
X129300Y754925D02*
D03*
X136800Y755050D02*
D03*
D70*
X118919Y723675D02*
D03*
X151419D02*
D03*
D71*
X118419Y753425D02*
D03*
X151919D02*
D03*
D72*
X190245Y292270D02*
D03*
X179995D02*
D03*
D73*
X666650Y1007783D02*
D03*
Y975017D02*
D03*
X605650Y1007783D02*
D03*
Y975017D02*
D03*
X666650Y792307D02*
D03*
Y825073D02*
D03*
X605650Y792307D02*
D03*
Y825073D02*
D03*
D74*
X660800Y769050D02*
D03*
Y756350D02*
D03*
Y743650D02*
D03*
Y730950D02*
D03*
X611500D02*
D03*
Y743650D02*
D03*
Y756350D02*
D03*
Y769050D02*
D03*
D75*
X522100Y846192D02*
D03*
X560200Y953888D02*
D03*
X547500D02*
D03*
X534800D02*
D03*
X522100D02*
D03*
X534800Y846192D02*
D03*
X547500D02*
D03*
X560200D02*
D03*
D76*
X605650Y846065D02*
D03*
X636150D02*
D03*
X666650D02*
D03*
Y954015D02*
D03*
X636150D02*
D03*
X605650D02*
D03*
D77*
X46000Y733550D02*
D03*
X54500D02*
D03*
D78*
X162500Y766700D02*
D03*
Y775700D02*
D03*
D79*
X1050360Y735540D02*
D03*
Y707000D02*
D03*
X1549000Y735540D02*
D03*
Y707000D02*
D03*
X2047640Y735540D02*
D03*
Y707000D02*
D03*
X2546280Y735540D02*
D03*
Y707000D02*
D03*
X2384680Y614460D02*
D03*
Y643000D02*
D03*
X1886040Y614460D02*
D03*
Y643000D02*
D03*
X1387400Y614460D02*
D03*
Y643000D02*
D03*
X888760Y614460D02*
D03*
Y643000D02*
D03*
X948760Y735540D02*
D03*
Y707000D02*
D03*
X1447400Y735540D02*
D03*
Y707000D02*
D03*
X1946040Y735540D02*
D03*
Y707000D02*
D03*
X2444680Y735540D02*
D03*
Y707000D02*
D03*
X2486280Y614460D02*
D03*
Y643000D02*
D03*
X1987640Y614460D02*
D03*
Y643000D02*
D03*
X1489000Y614460D02*
D03*
Y643000D02*
D03*
X990360Y614460D02*
D03*
Y643000D02*
D03*
D80*
X614780Y328520D02*
D03*
Y311520D02*
D03*
X560780Y334520D02*
D03*
Y351520D02*
D03*
D81*
X67500Y718850D02*
D03*
Y708350D02*
D03*
D82*
X240000Y326870D02*
D03*
X180000D02*
D03*
X189500Y945700D02*
D03*
X129500D02*
D03*
D83*
X189700Y895700D02*
D03*
X129500D02*
D03*
D84*
X599780Y311520D02*
D03*
X575780Y351520D02*
D03*
X599780D02*
D03*
X575780Y311520D02*
D03*
D85*
X302830Y351520D02*
D03*
X284830D02*
D03*
D86*
X868361Y491460D02*
D03*
X893761D02*
D03*
Y408460D02*
D03*
X842961D02*
D03*
Y491460D02*
D03*
X1569400Y858540D02*
D03*
X1544000D02*
D03*
Y941540D02*
D03*
X1594800D02*
D03*
Y858540D02*
D03*
X1467801Y858540D02*
D03*
X1442401D02*
D03*
Y941540D02*
D03*
X1493201D02*
D03*
Y858540D02*
D03*
X969960Y491460D02*
D03*
X995360D02*
D03*
Y408460D02*
D03*
X944560D02*
D03*
Y491460D02*
D03*
X969161Y858540D02*
D03*
X943761D02*
D03*
Y941540D02*
D03*
X994561D02*
D03*
Y858540D02*
D03*
X1070760Y858540D02*
D03*
X1045360D02*
D03*
Y941540D02*
D03*
X1096160D02*
D03*
Y858540D02*
D03*
X2338880Y491460D02*
D03*
Y408460D02*
D03*
X2389680D02*
D03*
Y491460D02*
D03*
X2364280D02*
D03*
X2440480Y491460D02*
D03*
Y408460D02*
D03*
X2491280D02*
D03*
Y491460D02*
D03*
X2465880D02*
D03*
X1367000Y491460D02*
D03*
X1392400D02*
D03*
Y408460D02*
D03*
X1341600D02*
D03*
Y491460D02*
D03*
X1468600Y491460D02*
D03*
X1494000D02*
D03*
Y408460D02*
D03*
X1443200D02*
D03*
Y491460D02*
D03*
X1840240Y491460D02*
D03*
Y408460D02*
D03*
X1891040D02*
D03*
Y491460D02*
D03*
X1865640D02*
D03*
X1941840Y491460D02*
D03*
Y408460D02*
D03*
X1992640D02*
D03*
Y491460D02*
D03*
X1967240D02*
D03*
X2490480Y858540D02*
D03*
Y941540D02*
D03*
X2439680D02*
D03*
Y858540D02*
D03*
X2465080D02*
D03*
X2592080Y858540D02*
D03*
Y941540D02*
D03*
X2541280D02*
D03*
Y858540D02*
D03*
X2566680D02*
D03*
X1991841Y858540D02*
D03*
Y941540D02*
D03*
X1941041D02*
D03*
Y858540D02*
D03*
X1966441D02*
D03*
X2093441Y858540D02*
D03*
Y941540D02*
D03*
X2042641D02*
D03*
Y858540D02*
D03*
X2068041D02*
D03*
D87*
X213000Y434110D02*
D03*
X180000D02*
D03*
X180000Y371360D02*
D03*
X213000D02*
D03*
X180000Y402610D02*
D03*
X213000D02*
D03*
D88*
X1654001Y971239D02*
D03*
X1544001D02*
D03*
X783760Y378760D02*
D03*
X893761D02*
D03*
X1155360Y971240D02*
D03*
X1045360D02*
D03*
X2042640D02*
D03*
X2152641D02*
D03*
X2541280D02*
D03*
X2651280D02*
D03*
X2279680Y378760D02*
D03*
X2389680D02*
D03*
X1282400D02*
D03*
X1392400D02*
D03*
X1891040D02*
D03*
X1781040D02*
D03*
D89*
X1599000Y1101239D02*
D03*
X838761Y248760D02*
D03*
X1100360Y1101240D02*
D03*
X2097641D02*
D03*
X2596280D02*
D03*
X2334680Y248760D02*
D03*
X1337400D02*
D03*
X1836040D02*
D03*
D90*
X1312400Y1046240D02*
D03*
X1125360Y303760D02*
D03*
X813760Y1046240D02*
D03*
X2621280Y303760D02*
D03*
X1624000D02*
D03*
X1811040Y1046240D02*
D03*
X2309680D02*
D03*
X2122640Y303760D02*
D03*
D91*
X1442400Y991240D02*
D03*
Y1101240D02*
D03*
X995361Y248760D02*
D03*
Y358760D02*
D03*
X943760Y991240D02*
D03*
Y1101240D02*
D03*
X2491280Y248760D02*
D03*
Y358760D02*
D03*
X1494000D02*
D03*
Y248760D02*
D03*
X1941040Y991240D02*
D03*
Y1101240D02*
D03*
X2439680Y991240D02*
D03*
Y1101240D02*
D03*
X1992640Y358759D02*
D03*
Y248760D02*
D03*
D92*
X1856040Y642400D02*
D03*
Y614460D02*
D03*
X1916040Y642400D02*
D03*
Y614460D02*
D03*
X2017639Y642400D02*
D03*
Y614460D02*
D03*
X1957640Y642400D02*
D03*
Y614460D02*
D03*
X1477401Y707599D02*
D03*
Y735539D02*
D03*
X1417401Y707599D02*
D03*
Y735539D02*
D03*
X1519001Y707599D02*
D03*
Y735539D02*
D03*
X1579001Y707599D02*
D03*
Y735539D02*
D03*
X858760Y642400D02*
D03*
Y614460D02*
D03*
X960360Y642400D02*
D03*
Y614460D02*
D03*
X1020360D02*
D03*
Y642400D02*
D03*
X918760D02*
D03*
Y614460D02*
D03*
X918761Y707600D02*
D03*
Y735540D02*
D03*
X978761Y707600D02*
D03*
Y735540D02*
D03*
X1080361Y707600D02*
D03*
Y735540D02*
D03*
X1020361D02*
D03*
Y707600D02*
D03*
X2516279Y642400D02*
D03*
Y614460D02*
D03*
X2414679Y642400D02*
D03*
Y614460D02*
D03*
X2354680Y642400D02*
D03*
Y614460D02*
D03*
X2456280D02*
D03*
Y642400D02*
D03*
X1518999D02*
D03*
Y614460D02*
D03*
X1459000Y642400D02*
D03*
Y614460D02*
D03*
X1357399Y642400D02*
D03*
Y614460D02*
D03*
X1417399Y642400D02*
D03*
Y614460D02*
D03*
X2516281Y735540D02*
D03*
Y707600D02*
D03*
X2474680Y735540D02*
D03*
Y707600D02*
D03*
X2576281Y735540D02*
D03*
Y707600D02*
D03*
X1976041Y735540D02*
D03*
Y707600D02*
D03*
X2017641Y735540D02*
D03*
Y707600D02*
D03*
X2077641Y735540D02*
D03*
Y707600D02*
D03*
X1916041Y735540D02*
D03*
Y707600D02*
D03*
X2414681Y735540D02*
D03*
Y707600D02*
D03*
D93*
X1442400Y800040D02*
D03*
Y828540D02*
D03*
X1544001D02*
D03*
Y800040D02*
D03*
X995360Y549960D02*
D03*
Y521460D02*
D03*
X893760D02*
D03*
Y549960D02*
D03*
X943760Y800040D02*
D03*
Y828540D02*
D03*
X1045361D02*
D03*
Y800040D02*
D03*
X2389680Y521460D02*
D03*
Y549960D02*
D03*
X2491280Y549960D02*
D03*
Y521460D02*
D03*
X1494000Y549960D02*
D03*
Y521460D02*
D03*
X1392400D02*
D03*
Y549960D02*
D03*
X1891040D02*
D03*
Y521460D02*
D03*
X2541280Y800040D02*
D03*
Y828540D02*
D03*
X1941041D02*
D03*
Y800040D02*
D03*
X2042641D02*
D03*
Y828540D02*
D03*
X2439680D02*
D03*
Y800040D02*
D03*
X1992640Y521460D02*
D03*
Y549960D02*
D03*
D94*
X1654001Y800040D02*
D03*
Y815280D02*
D03*
X1615000D02*
D03*
Y800040D02*
D03*
X783760Y534720D02*
D03*
Y549960D02*
D03*
X822760D02*
D03*
Y534720D02*
D03*
X636150Y792310D02*
D03*
Y807550D02*
D03*
X1155361Y800040D02*
D03*
Y815280D02*
D03*
X1116360Y800040D02*
D03*
Y815280D02*
D03*
X2318680Y534720D02*
D03*
Y549960D02*
D03*
X2279680Y534720D02*
D03*
Y549960D02*
D03*
X1321400Y534720D02*
D03*
Y549960D02*
D03*
X1282400D02*
D03*
Y534720D02*
D03*
X1781040D02*
D03*
Y549960D02*
D03*
X2612280Y800040D02*
D03*
Y815280D02*
D03*
X2651280D02*
D03*
Y800040D02*
D03*
X2113641D02*
D03*
Y815280D02*
D03*
X2152641D02*
D03*
Y800040D02*
D03*
X71000Y925700D02*
D03*
X1820040Y549960D02*
D03*
Y534720D02*
D03*
X71000Y910460D02*
D03*
X99500Y925700D02*
D03*
Y910460D02*
D03*
X536330Y266520D02*
D03*
Y251280D02*
D03*
D95*
X1633681Y858539D02*
D03*
X1654001D02*
D03*
X783760Y491460D02*
D03*
X804080D02*
D03*
X1135041Y858540D02*
D03*
X1155360D02*
D03*
X2300000Y491460D02*
D03*
X2279680D02*
D03*
X1302720D02*
D03*
X1282400D02*
D03*
X2152641Y858540D02*
D03*
X2132321D02*
D03*
X2651280D02*
D03*
X2630960D02*
D03*
X1781040Y491460D02*
D03*
X1801360D02*
D03*
D96*
X99500Y945700D02*
D03*
X71000D02*
D03*
D97*
X179550Y758550D02*
D03*
X171550D02*
D03*
X54250Y703550D02*
D03*
X46250D02*
D03*
Y718550D02*
D03*
X54250D02*
D03*
D98*
X45750Y748550D02*
D03*
X54750D02*
D03*
D99*
X71250Y541504D02*
D03*
Y650516D02*
D03*
D100*
X315450Y269450D02*
D03*
D101*
X353550Y193150D02*
D03*
X340850D02*
D03*
X328150D02*
D03*
X315450D02*
D03*
X302750D02*
D03*
X290050D02*
D03*
X277350D02*
D03*
D102*
X101550Y167750D02*
D03*
Y193150D02*
D03*
Y218550D02*
D03*
D103*
X12350Y246925D02*
D03*
Y139375D02*
D03*
D104*
X245500Y36500D02*
D03*
X260500D02*
D03*
X215500D02*
D03*
D105*
X201500Y28650D02*
D03*
X274500D02*
D03*
X201500Y9350D02*
D03*
X274500D02*
D03*
D106*
X353550Y70290D02*
D03*
Y56790D02*
D03*
D107*
X30000Y814550D02*
D03*
Y793550D02*
D03*
X277350Y60000D02*
D03*
Y81000D02*
D03*
D108*
X99500Y761420D02*
D03*
Y753420D02*
D03*
X194550Y725550D02*
D03*
Y733550D02*
D03*
D109*
X129500Y855700D02*
D03*
X162500D02*
D03*
X129500Y835700D02*
D03*
X162500D02*
D03*
X129500Y815700D02*
D03*
X162500D02*
D03*
X129500Y795700D02*
D03*
X162500D02*
D03*
D110*
X113800Y673250D02*
D03*
Y686750D02*
D03*
D111*
X575201Y14503D02*
D03*
D112*
X517200Y14498D02*
D03*
M02*
