G04*
G04 #@! TF.GenerationSoftware,Altium Limited,Altium Designer,24.3.1 (35)*
G04*
G04 Layer_Physical_Order=2*
G04 Layer_Color=32768*
%FSLAX44Y44*%
%MOMM*%
G71*
G04*
G04 #@! TF.SameCoordinates,92BC9782-8992-42D9-9517-A00A7AE7D45C*
G04*
G04*
G04 #@! TF.FilePolarity,Negative*
G04*
G01*
G75*
%ADD11C,0.2000*%
%ADD201C,1.0160*%
%ADD202C,2.3660*%
%ADD203C,4.2160*%
%ADD204O,1.5160X2.1660*%
%ADD205O,1.8660X1.5660*%
%ADD206C,1.9160*%
%ADD207C,2.1160*%
%ADD208C,2.4660*%
%ADD209C,4.5720*%
%ADD210C,2.0660*%
%ADD211O,2.0160X3.5160*%
%ADD212C,2.7160*%
%ADD213O,4.0160X2.0160*%
%ADD214O,3.3160X2.0160*%
%ADD215C,1.2660*%
G04:AMPARAMS|DCode=216|XSize=1.774mm|YSize=1.774mm|CornerRadius=0mm|HoleSize=0mm|Usage=FLASHONLY|Rotation=0.000|XOffset=0mm|YOffset=0mm|HoleType=Round|Shape=Relief|Width=0.254mm|Gap=0.254mm|Entries=4|*
%AMTHD216*
7,0,0,1.7740,1.2660,0.2540,45*
%
%ADD216THD216*%
G36*
X3000000Y0D02*
X690240D01*
Y476760D01*
X695240Y481758D01*
X2679800D01*
X2684798Y486960D01*
Y675000D01*
X2744800D01*
Y396260D01*
X2739800Y391260D01*
X756260D01*
X751260Y386260D01*
Y191260D01*
X756260Y186260D01*
X2769800D01*
X2774800Y191260D01*
Y1158740D01*
X2769800Y1163740D01*
X890000D01*
X885000Y1168740D01*
Y1184070D01*
X880000Y1189070D01*
X750240D01*
X745240Y1184070D01*
Y963740D01*
X690240D01*
Y1102660D01*
X685240Y1107660D01*
X617150D01*
X612150Y1102660D01*
Y1087898D01*
X607246Y1082994D01*
X493210Y1083170D01*
X488290Y1078250D01*
Y937040D01*
X493210Y932040D01*
X685240D01*
X690240Y937040D01*
Y963740D01*
X745240D01*
X750240Y958740D01*
X2739800D01*
X2744800Y953740D01*
Y675000D01*
X2684798D01*
Y862772D01*
X2679800Y867770D01*
X266930D01*
X261930Y872770D01*
Y1389820D01*
X263045Y1390935D01*
X3000000D01*
Y0D01*
D02*
G37*
D11*
X612150Y1102660D02*
X617150Y1107660D01*
X607150Y1083250D02*
X612150Y1088250D01*
X607150Y1083250D02*
X607150D01*
X488290Y1078250D02*
X493290Y1083250D01*
X488290Y1078250D02*
Y1078250D01*
X493290Y1083250D02*
X607150D01*
X617150Y1107660D02*
X685240D01*
X612150Y1088250D02*
Y1102660D01*
X685240Y932040D02*
X690240Y937040D01*
X488290Y937040D02*
X493290Y932040D01*
X685240Y1107660D02*
X690240Y1102660D01*
X690240Y1097660D02*
X690240D01*
X488290Y937040D02*
Y1078250D01*
X493290Y932040D02*
X685240D01*
X690240Y937040D02*
Y1102660D01*
X0Y0D02*
Y1500000D01*
X3000000D01*
Y0D02*
Y1500000D01*
X0Y0D02*
X3000000D01*
D201*
X0D02*
X3000000D01*
Y1500000D01*
X0D02*
X3000000D01*
X0Y0D02*
Y1500000D01*
D202*
X2960000Y1200000D02*
D03*
X2884000D02*
D03*
X2960000Y1050000D02*
D03*
X2884000D02*
D03*
X2960000Y900000D02*
D03*
X2884000D02*
D03*
X2960000Y750000D02*
D03*
X2884000D02*
D03*
X2960000Y600000D02*
D03*
X2884000D02*
D03*
X2960000Y450000D02*
D03*
X2884000D02*
D03*
X2960000Y300000D02*
D03*
X2884000D02*
D03*
X2960000Y150000D02*
D03*
X2884000D02*
D03*
X2960000Y1392100D02*
D03*
X2884000D02*
D03*
D203*
X2960000Y40000D02*
D03*
X40000D02*
D03*
Y1460000D02*
D03*
X2960000D02*
D03*
D204*
X511200Y14500D02*
D03*
X581200D02*
D03*
D205*
X521200Y41500D02*
D03*
X571200D02*
D03*
D206*
X652140Y20000D02*
D03*
X677540D02*
D03*
X652140Y45400D02*
D03*
X677540D02*
D03*
X652140Y70800D02*
D03*
X677540D02*
D03*
X652140Y96200D02*
D03*
X677540D02*
D03*
X652140Y121600D02*
D03*
X677540D02*
D03*
X652140Y147000D02*
D03*
Y172400D02*
D03*
Y197800D02*
D03*
Y223200D02*
D03*
Y248600D02*
D03*
X677540Y147000D02*
D03*
Y172400D02*
D03*
Y197800D02*
D03*
Y223200D02*
D03*
Y248600D02*
D03*
X496330Y301520D02*
D03*
X547130D02*
D03*
X521730D02*
D03*
X223000Y19000D02*
D03*
X253000D02*
D03*
D207*
X415430Y950840D02*
D03*
Y849240D02*
D03*
D208*
X50930Y1182200D02*
D03*
X533530Y1284200D02*
D03*
Y1176200D02*
D03*
X50930Y1385400D02*
D03*
X533530Y1392100D02*
D03*
D209*
X217160Y1194200D02*
D03*
X86930Y1372000D02*
D03*
D210*
X177930Y1385400D02*
D03*
X152530D02*
D03*
X127130D02*
D03*
D211*
X90000Y39250D02*
D03*
X180000D02*
D03*
D212*
X135000Y19250D02*
D03*
D213*
Y109250D02*
D03*
D214*
Y49250D02*
D03*
D215*
X378550Y39900D02*
D03*
X412940Y301520D02*
D03*
X1810040Y610210D02*
D03*
X509200Y61500D02*
D03*
X520080Y168530D02*
D03*
X712740Y615000D02*
D03*
Y630000D02*
D03*
Y645000D02*
D03*
Y660000D02*
D03*
Y690000D02*
D03*
Y705000D02*
D03*
Y720000D02*
D03*
Y735000D02*
D03*
X362580Y133670D02*
D03*
Y147880D02*
D03*
Y161550D02*
D03*
X410490Y133670D02*
D03*
Y147880D02*
D03*
Y161550D02*
D03*
X378550Y162100D02*
D03*
Y133670D02*
D03*
X315450Y334990D02*
D03*
X492160Y39900D02*
D03*
X594830Y560020D02*
D03*
Y575020D02*
D03*
Y405020D02*
D03*
X579830Y415020D02*
D03*
X594830Y425020D02*
D03*
X496330Y266200D02*
D03*
X536330Y241280D02*
D03*
X506200Y203905D02*
D03*
X536330Y276520D02*
D03*
X551330D02*
D03*
X546200Y122400D02*
D03*
X566330Y276520D02*
D03*
X546200Y81400D02*
D03*
X521330Y336520D02*
D03*
X553830Y163530D02*
D03*
X468260Y95300D02*
D03*
X402560Y39900D02*
D03*
X546200Y61500D02*
D03*
X367830Y455020D02*
D03*
X431330Y410670D02*
D03*
X371330Y395020D02*
D03*
X446330Y410670D02*
D03*
X476330Y391520D02*
D03*
X506330D02*
D03*
X476330Y420670D02*
D03*
X461330Y430670D02*
D03*
X371330Y410020D02*
D03*
X317830Y598520D02*
D03*
X495340Y566020D02*
D03*
X481330Y558520D02*
D03*
X466330Y551020D02*
D03*
X214070Y503400D02*
D03*
Y528800D02*
D03*
X179550Y713550D02*
D03*
X394520Y133670D02*
D03*
Y147880D02*
D03*
Y162100D02*
D03*
X873760Y1162660D02*
D03*
X858760D02*
D03*
X843760D02*
D03*
X828760D02*
D03*
X813760D02*
D03*
X798760D02*
D03*
X783760D02*
D03*
X768760D02*
D03*
X753760D02*
D03*
X843760Y1177660D02*
D03*
X828760D02*
D03*
X873760D02*
D03*
X858760D02*
D03*
X813760D02*
D03*
X798760D02*
D03*
X783760D02*
D03*
X768760D02*
D03*
X753760D02*
D03*
X432940Y757000D02*
D03*
X415430D02*
D03*
X533530Y781070D02*
D03*
X548770D02*
D03*
X560200Y990020D02*
D03*
X712740Y756000D02*
D03*
X681650Y1086880D02*
D03*
X190240Y272270D02*
D03*
X243320D02*
D03*
Y292270D02*
D03*
X758760Y581210D02*
D03*
Y595210D02*
D03*
X697740Y518460D02*
D03*
X712740Y533460D02*
D03*
X2093441Y828540D02*
D03*
X1991841D02*
D03*
X2132321Y828730D02*
D03*
X1594801Y828540D02*
D03*
X1493201D02*
D03*
X2592081D02*
D03*
X1096161D02*
D03*
X2490481D02*
D03*
X994561D02*
D03*
X1135041Y828730D02*
D03*
X1633681D02*
D03*
X712740Y815723D02*
D03*
X260780Y400020D02*
D03*
Y470020D02*
D03*
Y435020D02*
D03*
Y450020D02*
D03*
Y420020D02*
D03*
Y371360D02*
D03*
X228000Y402610D02*
D03*
Y434110D02*
D03*
X594830Y490020D02*
D03*
Y505020D02*
D03*
X332830Y672520D02*
D03*
X317830D02*
D03*
X347830Y628520D02*
D03*
X401330Y573520D02*
D03*
X416330D02*
D03*
X451330Y543520D02*
D03*
X210640Y704550D02*
D03*
X507100Y846190D02*
D03*
X574200Y810070D02*
D03*
X593120Y730950D02*
D03*
X302750Y168150D02*
D03*
X258500Y81000D02*
D03*
X302350Y60000D02*
D03*
X353550Y39900D02*
D03*
X30000Y688550D02*
D03*
X179550Y775700D02*
D03*
X260780Y326870D02*
D03*
X284830Y334990D02*
D03*
X2082640Y768240D02*
D03*
X923760Y581660D02*
D03*
Y596660D02*
D03*
X1180361Y754790D02*
D03*
X1015361Y753340D02*
D03*
Y768340D02*
D03*
X918761Y690000D02*
D03*
X1080361Y687180D02*
D03*
X813760Y1046240D02*
D03*
X1020361Y690000D02*
D03*
X948761D02*
D03*
X978761D02*
D03*
X913761Y753340D02*
D03*
Y768340D02*
D03*
X1085361Y768240D02*
D03*
Y782240D02*
D03*
X983761D02*
D03*
Y768240D02*
D03*
X1126360Y739790D02*
D03*
X1111361Y767790D02*
D03*
X1180361Y768790D02*
D03*
X1050361Y690000D02*
D03*
X1514001Y753340D02*
D03*
Y768340D02*
D03*
X1417401Y690000D02*
D03*
X1579001Y687180D02*
D03*
X1312400Y1046240D02*
D03*
X1519001Y690000D02*
D03*
X1447401D02*
D03*
X1477401D02*
D03*
X1412401Y753340D02*
D03*
Y768340D02*
D03*
X1584001Y768240D02*
D03*
Y782240D02*
D03*
X1482401D02*
D03*
Y768240D02*
D03*
X1625000Y739790D02*
D03*
X1610001Y767790D02*
D03*
X1679001Y754790D02*
D03*
Y768790D02*
D03*
X1549001Y690000D02*
D03*
X1916041Y690000D02*
D03*
X1811040Y1046240D02*
D03*
X2077641Y687180D02*
D03*
X1976041Y690000D02*
D03*
X1911041Y753340D02*
D03*
Y768340D02*
D03*
X1946041Y690000D02*
D03*
X2047641D02*
D03*
X2012641Y753340D02*
D03*
Y768340D02*
D03*
X2017641Y690000D02*
D03*
X2082641Y782240D02*
D03*
X1981041D02*
D03*
Y768240D02*
D03*
X2123640Y739790D02*
D03*
X2108641Y767790D02*
D03*
X2177641Y754790D02*
D03*
Y768790D02*
D03*
X2479680Y768240D02*
D03*
X2630961Y828540D02*
D03*
X2676281Y754790D02*
D03*
Y768790D02*
D03*
X2576281Y687180D02*
D03*
X2516281Y690000D02*
D03*
X2546281D02*
D03*
X2511281Y753340D02*
D03*
Y768340D02*
D03*
X2414680Y690000D02*
D03*
X2409680Y753340D02*
D03*
Y768340D02*
D03*
X2474680Y690000D02*
D03*
X2444680D02*
D03*
X2479680Y782240D02*
D03*
X2581281Y768240D02*
D03*
Y782240D02*
D03*
X2622280Y739790D02*
D03*
X2607281Y767790D02*
D03*
X2309680Y1046240D02*
D03*
X2419680Y581660D02*
D03*
Y596660D02*
D03*
X2521279Y581660D02*
D03*
Y596660D02*
D03*
X2486279Y660000D02*
D03*
X2516279D02*
D03*
X2440479Y521460D02*
D03*
X2456279Y660000D02*
D03*
X2354680Y662820D02*
D03*
X2414680Y660000D02*
D03*
X2384680D02*
D03*
X2299999Y521460D02*
D03*
X2338879D02*
D03*
X2349680Y567760D02*
D03*
Y581760D02*
D03*
X2621280Y303760D02*
D03*
X2451279Y581760D02*
D03*
Y567760D02*
D03*
X2308680Y610210D02*
D03*
X2323680Y582210D02*
D03*
X2254680Y581210D02*
D03*
Y595210D02*
D03*
X1921040Y581660D02*
D03*
Y596660D02*
D03*
X2022640Y581660D02*
D03*
Y596660D02*
D03*
X1987640Y660000D02*
D03*
X2017640D02*
D03*
X1941839Y521460D02*
D03*
X1957640Y660000D02*
D03*
X1856040Y662820D02*
D03*
X1916040Y660000D02*
D03*
X1886040D02*
D03*
X1801360Y521460D02*
D03*
X1840240D02*
D03*
X1851040Y567760D02*
D03*
Y581760D02*
D03*
X2122640Y303760D02*
D03*
X1952640Y581760D02*
D03*
Y567760D02*
D03*
X1825040Y582210D02*
D03*
X1756040Y581210D02*
D03*
Y595210D02*
D03*
X1257400D02*
D03*
Y581210D02*
D03*
X1311400Y610210D02*
D03*
X1443199Y521460D02*
D03*
X1624000Y303760D02*
D03*
X1523999Y581660D02*
D03*
Y596660D02*
D03*
X1302719Y521460D02*
D03*
X1341599D02*
D03*
X1453999Y581760D02*
D03*
Y567760D02*
D03*
X1352399Y581760D02*
D03*
Y567760D02*
D03*
X1422399Y596660D02*
D03*
Y581660D02*
D03*
X1417399Y660000D02*
D03*
X1387399D02*
D03*
X1326399Y582210D02*
D03*
X1488999Y660000D02*
D03*
X1518999D02*
D03*
X1458999D02*
D03*
X1357399Y662820D02*
D03*
X955360Y567760D02*
D03*
X853760D02*
D03*
X804080Y521460D02*
D03*
X842960D02*
D03*
X827760Y582210D02*
D03*
X853760Y581760D02*
D03*
X955360D02*
D03*
X944560Y521460D02*
D03*
X918760Y660000D02*
D03*
X888760D02*
D03*
X858760Y662820D02*
D03*
X990360Y660000D02*
D03*
X960360D02*
D03*
X1125360Y303760D02*
D03*
X1020360Y660000D02*
D03*
X1025360Y581660D02*
D03*
Y596660D02*
D03*
X539830Y455020D02*
D03*
Y440020D02*
D03*
X492140Y490020D02*
D03*
X559560Y757000D02*
D03*
Y743000D02*
D03*
X636150Y825070D02*
D03*
X727740Y548460D02*
D03*
X843760Y1148740D02*
D03*
X858760D02*
D03*
X753760D02*
D03*
X768760D02*
D03*
X783760D02*
D03*
X798760D02*
D03*
X813760D02*
D03*
X828760D02*
D03*
X697740Y622500D02*
D03*
X228000Y371360D02*
D03*
X875180Y1147660D02*
D03*
X727740Y822730D02*
D03*
X697740Y697500D02*
D03*
Y727500D02*
D03*
Y712500D02*
D03*
Y682500D02*
D03*
X727740Y807730D02*
D03*
X712740Y800230D02*
D03*
X697740Y652500D02*
D03*
X594830Y530020D02*
D03*
Y545020D02*
D03*
X1836040Y120000D02*
D03*
X838760Y60000D02*
D03*
X1100360Y1290000D02*
D03*
X2097640Y1230000D02*
D03*
X560200Y810070D02*
D03*
X214070Y516100D02*
D03*
X213500Y473110D02*
D03*
Y457360D02*
D03*
X317830Y628520D02*
D03*
X367830Y430020D02*
D03*
X377830Y440020D02*
D03*
X317830Y613520D02*
D03*
X244390Y371360D02*
D03*
X50930Y778550D02*
D03*
X332830Y628520D02*
D03*
X378550Y147885D02*
D03*
X426460Y162100D02*
D03*
Y147880D02*
D03*
Y133670D02*
D03*
X179550Y795700D02*
D03*
Y815700D02*
D03*
Y835700D02*
D03*
Y855700D02*
D03*
X209700Y895700D02*
D03*
Y945700D02*
D03*
X30000Y778550D02*
D03*
Y703550D02*
D03*
Y718550D02*
D03*
Y733550D02*
D03*
Y748550D02*
D03*
Y763550D02*
D03*
X331830Y334990D02*
D03*
X451330Y336520D02*
D03*
X466330D02*
D03*
X366330D02*
D03*
X560780Y311520D02*
D03*
X614780Y351520D02*
D03*
X539830Y480020D02*
D03*
X697740Y637500D02*
D03*
Y667500D02*
D03*
X524830Y495020D02*
D03*
X466330Y628520D02*
D03*
X481330D02*
D03*
X401330Y643520D02*
D03*
X416330Y628520D02*
D03*
X401330D02*
D03*
X416330Y643520D02*
D03*
X302830Y555020D02*
D03*
Y540020D02*
D03*
Y500020D02*
D03*
Y485020D02*
D03*
X496330Y321520D02*
D03*
X477140Y475020D02*
D03*
X462140Y460020D02*
D03*
X527700Y61500D02*
D03*
X551330Y241280D02*
D03*
X566330D02*
D03*
X468260Y125300D02*
D03*
X50930Y861360D02*
D03*
X179550Y728550D02*
D03*
X162500Y457360D02*
D03*
X16750Y473110D02*
D03*
X468260Y80300D02*
D03*
Y110300D02*
D03*
X536330Y336520D02*
D03*
X388830D02*
D03*
X411330D02*
D03*
D216*
X597150Y1042850D02*
D03*
X574200Y990020D02*
D03*
X627470Y975020D02*
D03*
X503290Y1031150D02*
D03*
X579010D02*
D03*
X647630Y975020D02*
D03*
X631330Y1086880D02*
D03*
X507100Y953890D02*
D03*
M02*
