M48
;Layer_Color=9474304
;FILE_FORMAT=4:4
METRIC,LZ
;TYPE=PLATED
T01F00S00C0.2500
T04F00S00C0.9000
T06F00S00C1.0500
T07F00S00C1.1000
T08F00S00C1.3500
T09F00S00C1.4500
T10F00S00C3.5560
;TYPE=NON_PLATED
T11F00S00C0.9000
T12F00S00C1.7000
T13F00S00C3.2000
%
T01
X002585Y00081
X0030235Y0006
X0035355Y000399
X0037855
X0040256
X0049216
X005092Y000615
X005277
X0046826Y000803
Y000953
Y001103
Y001253
X0042646Y0013367
X0041049
X0039452
X0037855
X0036258
X005462Y001224
Y000814
Y000615
X0083876Y0006
X0183604Y0012
X0262128Y0030376
X02440479Y0052146
X02338879Y0052146
X02299999
X01941839Y0052146
X0184024Y0052146
X0180136
X0212264Y0030376
X01624
X01443199Y0052146
X01341599Y0052146
X01302719
X0094456Y0052146
X0112536Y0030376
X0084296Y0052146
X0080408
X0071274Y0053346
X0069774Y0051846
X0059483Y0053002
Y0050502
Y0049002
Y0042502
Y0040502
X0057983Y0041502
X0053983Y0044002
Y0045502
Y0048002
X0056078Y0031152
X0056633Y0027652
X0055133
Y0024128
X0056633
X0055383Y0016353
X0061478Y0035152
X0053633Y0033652
X0052133
X0049633Y0032152
X0046633Y0033652
X0045133
X0041133
X0038883
X0036633
X0033183Y0033499
X0031545
X0028483
X0026078Y0032687
Y0037136
X0024439
X00228
Y0040261
Y0043411
X0026078Y0043502
Y0045002
Y0047002
Y0042002
Y0040002
X002135Y0045736
Y0047311
X0021407Y005034
Y005161
Y005288
X0030283Y0050002
Y0048502
X0036783Y0045502
Y0043002
X0037783Y0044002
X0037133Y0041002
Y0039502
X0043133Y0041067
X0044633
X0046133Y0043067
X0047633Y0042067
Y0039152
X0050633
X0049214Y0049002
X0047714Y0047502
X0046214Y0046002
X0052483Y0049502
X0053633Y0027652
Y0024128
X0049633Y002662
X005062Y00203905
X0052008Y0016853
X0042646Y001621
Y0014788
X0041049
Y0016155
X0039452Y001621
Y0014788
X0037855Y00147885
Y001621
X0036258Y0016155
Y0014788
X0030275Y0016815
X0024332Y0027227
Y0029227
X0019024Y0027227
X001625Y0045736
X0041294Y0030152
X0001675Y0047311
X0003Y0068855
Y0070355
Y0071855
Y0073355
Y0074855
Y0076355
Y0077855
X0005093
Y0086136
X0017955Y008557
Y008357
Y008157
Y007957
Y007757
Y0072855
Y0071355
X0021064Y0070455
X0031783Y0067252
X0033283
Y0062852
X0034783
X0031783
Y0061352
Y0059852
X0030283Y0055502
Y0054002
X0040133Y0057352
X0041633
Y0062852
X0040133
Y0064352
X0041633
X0046633Y0062852
X0048133
X0048133Y0055852
X0049534Y0056602
X0046633Y0055102
X0045133Y0054352
X0043294Y00757
X0041543
X0053353Y0078107
X005071Y0084619
X002097Y008957
X005602Y0081007
X005742
X0054877Y0078107
X0055956Y00757
Y00743
X0059312Y0073095
X0069774Y007275
Y007125
Y006975
Y006825
Y006675
Y006525
Y006375
Y006225
X0071274Y00615
Y0063
Y00645
Y0066
Y0069
Y00705
Y0072
Y00735
Y00756
Y0080023
Y00815723
X0072774Y0082273
Y0080773
X0063615Y0082507
X0059483Y0057502
Y0056002
Y0054502
X0072774Y0054846
X0075876Y0058121
Y0059521
X0082776Y0058221
X0085376Y0058176
Y0056776
X0092376Y0058166
Y0059666
X0091876Y0066
X0088876
X0085876Y0066282
X00918761Y0069
X00913761Y0075334
Y0076834
X00983761Y0076824
Y0078224
X01015361Y0076834
Y0075334
X01020361Y0069
X01050361
X01080361Y0068718
X01085361Y0076824
Y0078224
X01111361Y0076779
X0112636Y0073979
X01180361Y0075479
Y0076879
X01135041Y0082873
X01096161Y0082854
X00994561
X00978761Y0069
X00948761
X0096036Y0066
X0099036
X0102036
X0102536Y0059666
Y0058166
X0095536Y0058176
Y0056776
X012574Y0058121
Y0059521
X013114Y0061021
X01326399Y0058221
X01352399Y0058176
Y0056776
X01422399Y0058166
Y0059666
X01453999Y0058176
Y0056776
X01523999Y0058166
Y0059666
X01518999Y0066
X01488999
X01458999
X01447401Y0069
X01477401
X01519001
X01549001
X01579001Y0068718
X01584001Y0076824
Y0078224
X01610001Y0076779
X01625Y0073979
X01679001Y0075479
Y0076879
X01633681Y0082873
X01594801Y0082854
X01493201
X01482401Y0078224
Y0076824
X01514001Y0076834
Y0075334
X01412401
Y0076834
X01417401Y0069
X01417399Y0066
X01387399
X01357399Y0066282
X0175604Y0059521
Y0058121
X0182504Y0058221
X0185104Y0058176
Y0056776
X0181004Y0061021
X0185604Y0066282
X0188604Y0066
X0191604
X01916041Y0069
X01946041
X01976041
X0198764Y0066
X0195764
X0201764
X02017641Y0069
X02047641
X02077641Y0068718
X0208264Y0076824
X02082641Y0078224
X02108641Y0076779
X0212364Y0073979
X02093441Y0082854
X01991841
X01981041Y0078224
Y0076824
X02012641Y0076834
Y0075334
X01911041
Y0076834
X0192104Y0059666
Y0058166
X0195264Y0058176
Y0056776
X0202264Y0058166
Y0059666
X0225468Y0059521
Y0058121
X0232368Y0058221
X0234968Y0058176
Y0056776
X0230868Y0061021
X0235468Y0066282
X0238468Y0066
X0241468
X0241468Y0069
X0244468
X0247468
X02486279Y0066
X02456279
X02516279
X02516281Y0069
X02511281Y0075334
Y0076834
X0247968Y0076824
Y0078224
X02490481Y0082854
X0240968Y0076834
Y0075334
X0241968Y0059666
Y0058166
X02451279Y0058176
Y0056776
X02521279Y0058166
Y0059666
X02177641Y0075479
Y0076879
X02132321Y0082873
X02592081Y0082854
X02630961Y0082854
X02607281Y0076779
X02581281Y0076824
Y0078224
X0262228Y0073979
X02676281Y0075479
Y0076879
X02576281Y0068718
X02546281Y0069
X0230968Y0104624
X0209764Y0123
X0181104Y0104624
X013124Y0104624
X0110036Y0129
X0087376Y0117766
Y0116266
X0085876
Y0114874
X0084376
Y0116266
Y0117766
X0085876
X0082876
Y0116266
Y0114874
X0081376
Y0116266
X0079876
Y0114874
X0078376
Y0116266
X0076876
Y0114874
X0075376
Y0116266
Y0117766
X0076876
X0078376
X0079876
X0081376
X0087518Y0114766
X0081376Y0104624
X0068165Y0108688
X0063133
X0059715Y0104285
X0057901Y0103115
X005742Y0099002
X005602
X0062747Y0097502
X0064763
X005071Y0095389
X0050329Y0103115
X002097Y009457
T04
X0065214Y0002
X0067754
Y000454
X0065214
Y000708
X0067754
Y000962
X0065214
Y001216
X0067754
Y00147
X0065214
Y001724
Y001978
Y002232
Y002486
X0067754
Y002232
Y001978
Y001724
X0054713Y0030152
X0052173
X0049633
T06
X0012713Y013854
X0015253
X0017793
T07
X0041543Y0084924
Y0095084
T08
X0296Y0015
Y003
Y0045
X02884
Y003
Y0015
Y006
Y0075
Y009
X0296
Y0075
Y006
Y0105
Y012
X02884
Y0105
Y013921
X0296
T09
X0053353Y011762
Y012842
X0005093Y011822
Y013854
X0053353Y013921
T10
X0021716Y011942
X0008693Y01372
T11
X00223Y00019
X00253
T12
X00135Y0001925
T13
X0004Y0004
X0296
X0004Y0146
X0296
M30
